999
DXF created by Inkscape
  0
SECTION
  2
HEADER
  9
$ACADVER
  1
AC1014
  9
$HANDSEED
  5
FFFF
  9
$MEASUREMENT
 70
     1
  0
ENDSEC
  0
SECTION
  2
TABLES
  0
TABLE
  2
VPORT
  5
8
330
0
100
AcDbSymbolTable
 70
     4
  0
VPORT
  5
2E
330
8
100
AcDbSymbolTableRecord
100
AcDbViewportTableRecord
  2
*ACTIVE
 70
     0
 10
0.0
 20
0.0
 11
1.0
 21
1.0
 12
210.0
 22
148.5
 13
0.0
 23
0.0
 14
10.0
 24
10.0
 15
10.0
 25
10.0
 16
0.0
 26
0.0
 36
1.0
 17
0.0
 27
0.0
 37
0.0
 40
341.0
 41
1.24
 42
50.0
 43
0.0
 44
0.0
 50
0.0
 51
0.0
 71
     0
 72
   100
 73
     1
 74
     3
 75
     0
 76
     0
 77
     0
 78
     0
  0
ENDTAB
  0
TABLE
  2
LTYPE
  5
5
330
0
100
AcDbSymbolTable
 70
     1
  0
LTYPE
  5
14
330
5
100
AcDbSymbolTableRecord
100
AcDbLinetypeTableRecord
  2
BYBLOCK
 70
     0
  3

 72
    65
 73
     0
 40
0.0
  0
LTYPE
  5
15
330
5
100
AcDbSymbolTableRecord
100
AcDbLinetypeTableRecord
  2
BYLAYER
 70
     0
  3

 72
    65
 73
     0
 40
0.0
  0
LTYPE
  5
16
330
5
100
AcDbSymbolTableRecord
100
AcDbLinetypeTableRecord
  2
CONTINUOUS
 70
     0
  3
Solid line
 72
    65
 73
     0
 40
0.0
  0
ENDTAB
  0
TABLE
  2
LAYER
  5
2
100
AcDbSymbolTable
 70
2
  0
LAYER
  5
50
100
AcDbSymbolTableRecord
100
AcDbLayerTableRecord
  2
0
 70
0
  6
CONTINUOUS
  0
LAYER
  5
51
100
AcDbSymbolTableRecord
100
AcDbLayerTableRecord
  2
Layer_1
 70
0
  6
CONTINUOUS
  0
ENDTAB
  0
TABLE
  2
STYLE
  5
3
330
0
100
AcDbSymbolTable
 70
     1
  0
STYLE
  5
11
330
3
100
AcDbSymbolTableRecord
100
AcDbTextStyleTableRecord
  2
STANDARD
 70
     0
 40
0.0
 41
1.0
 50
0.0
 71
     0
 42
2.5
  3
txt
  4

  0
ENDTAB
  0
TABLE
  2
VIEW
  5
6
330
0
100
AcDbSymbolTable
 70
     0
  0
ENDTAB
  0
TABLE
  2
UCS
  5
7
330
0
100
AcDbSymbolTable
 70
     0
  0
ENDTAB
  0
TABLE
  2
APPID
  5
9
330
0
100
AcDbSymbolTable
 70
     2
  0
APPID
  5
12
330
9
100
AcDbSymbolTableRecord
100
AcDbRegAppTableRecord
  2
ACAD
 70
     0
  0
ENDTAB
  0
TABLE
  2
DIMSTYLE
  5
A
330
0
100
AcDbSymbolTable
 70
     1
  0
DIMSTYLE
105
27
330
A
100
AcDbSymbolTableRecord
100
AcDbDimStyleTableRecord
  2
ISO-25
 70
     0
  3

  4

  5

  6

  7

 40
1.0
 41
2.5
 42
0.625
 43
3.75
 44
1.25
 45
0.0
 46
0.0
 47
0.0
 48
0.0
140
2.5
141
2.5
142
0.0
143
0.03937007874016
144
1.0
145
0.0
146
1.0
147
0.625
 71
     0
 72
     0
 73
     0
 74
     0
 75
     0
 76
     0
 77
     1
 78
     8
170
     0
171
     3
172
     1
173
     0
174
     0
175
     0
176
     0
177
     0
178
     0
270
     2
271
     2
272
     2
273
     2
274
     3
340
11
275
     0
280
     0
281
     0
282
     0
283
     0
284
     8
285
     0
286
     0
287
     3
288
     0
  0
ENDTAB
  0
TABLE
  2
BLOCK_RECORD
  5
1
330
0
100
AcDbSymbolTable
 70
     1
  0
BLOCK_RECORD
  5
1F
330
1
100
AcDbSymbolTableRecord
100
AcDbBlockTableRecord
  2
*MODEL_SPACE
  0
BLOCK_RECORD
  5
1B
330
1
100
AcDbSymbolTableRecord
100
AcDbBlockTableRecord
  2
*PAPER_SPACE
  0
ENDTAB
  0
ENDSEC
  0
SECTION
  2
BLOCKS
  0
BLOCK
  5
20
330
1F
100
AcDbEntity
  8
0
100
AcDbBlockBegin
  2
*MODEL_SPACE
 70
     0
 10
0.0
 20
0.0
 30
0.0
  3
*MODEL_SPACE
  1

  0
ENDBLK
  5
21
330
1F
100
AcDbEntity
  8
0
100
AcDbBlockEnd
  0
BLOCK
  5
1C
330
1B
100
AcDbEntity
 67
     1
  8
0
100
AcDbBlockBegin
  2
*PAPER_SPACE
  1

  0
ENDBLK
  5
1D
330
1B
100
AcDbEntity
 67
     1
  8
0
100
AcDbBlockEnd
  0
ENDSEC
  0
SECTION
  2
ENTITIES
  0
LWPOLYLINE
  5
100
100
AcDbEntity
  8
Layer_1
 62
7
100
AcDbPolyline
 90
9
 70
0
 10
0.000000
 20
58.420004
 30
0.0
 10
0.000000
 20
116.840000
 30
0.0
 10
387.491125
 20
116.840000
 30
0.0
 10
774.982250
 20
116.840000
 30
0.0
 10
774.982250
 20
58.420004
 30
0.0
 10
774.982250
 20
0.000003
 30
0.0
 10
387.491125
 20
0.000003
 30
0.0
 10
0.000000
 20
0.000003
 30
0.0
 10
0.000000
 20
58.420004
 30
0.0
  0
LWPOLYLINE
  5
101
100
AcDbEntity
  8
Layer_1
 62
7
100
AcDbPolyline
 90
6
 70
0
 10
22.961247
 20
23.960077
 30
0.0
 10
24.831850
 20
27.657781
 30
0.0
 10
20.602236
 20
31.887389
 30
0.0
 10
16.372614
 20
27.657781
 30
0.0
 10
20.602236
 20
23.428173
 30
0.0
 10
22.961247
 20
23.960077
 30
0.0
  0
LWPOLYLINE
  5
102
100
AcDbEntity
  8
Layer_1
 62
7
100
AcDbPolyline
 90
6
 70
0
 10
31.992358
 20
23.960077
 30
0.0
 10
33.862961
 20
27.657781
 30
0.0
 10
29.633347
 20
31.887389
 30
0.0
 10
25.403734
 20
27.657781
 30
0.0
 10
29.633347
 20
23.428173
 30
0.0
 10
31.992358
 20
23.960077
 30
0.0
  0
LWPOLYLINE
  5
103
100
AcDbEntity
  8
Layer_1
 62
7
100
AcDbPolyline
 90
6
 70
0
 10
41.023469
 20
23.960077
 30
0.0
 10
42.894072
 20
27.657781
 30
0.0
 10
38.664459
 20
31.887389
 30
0.0
 10
34.434845
 20
27.657781
 30
0.0
 10
38.664459
 20
23.428173
 30
0.0
 10
41.023469
 20
23.960077
 30
0.0
  0
LWPOLYLINE
  5
104
100
AcDbEntity
  8
Layer_1
 62
7
100
AcDbPolyline
 90
6
 70
0
 10
50.054581
 20
23.960077
 30
0.0
 10
51.925183
 20
27.657781
 30
0.0
 10
47.695570
 20
31.887389
 30
0.0
 10
43.465956
 20
27.657781
 30
0.0
 10
47.695570
 20
23.428173
 30
0.0
 10
50.054581
 20
23.960077
 30
0.0
  0
LWPOLYLINE
  5
105
100
AcDbEntity
  8
Layer_1
 62
7
100
AcDbPolyline
 90
6
 70
0
 10
59.085692
 20
23.960077
 30
0.0
 10
60.956294
 20
27.657781
 30
0.0
 10
56.726681
 20
31.887389
 30
0.0
 10
52.497067
 20
27.657781
 30
0.0
 10
56.726681
 20
23.428173
 30
0.0
 10
59.085692
 20
23.960077
 30
0.0
  0
LWPOLYLINE
  5
106
100
AcDbEntity
  8
Layer_1
 62
7
100
AcDbPolyline
 90
6
 70
0
 10
68.116803
 20
23.960077
 30
0.0
 10
69.987406
 20
27.657781
 30
0.0
 10
65.757792
 20
31.887389
 30
0.0
 10
61.528178
 20
27.657781
 30
0.0
 10
65.757792
 20
23.428173
 30
0.0
 10
68.116803
 20
23.960077
 30
0.0
  0
LWPOLYLINE
  5
107
100
AcDbEntity
  8
Layer_1
 62
7
100
AcDbPolyline
 90
7
 70
0
 10
77.147914
 20
23.960077
 30
0.0
 10
79.018517
 20
27.657781
 30
0.0
 10
77.147914
 20
31.355484
 30
0.0
 10
72.429892
 20
31.355484
 30
0.0
 10
70.559289
 20
27.657781
 30
0.0
 10
74.788903
 20
23.428173
 30
0.0
 10
77.147914
 20
23.960077
 30
0.0
  0
LWPOLYLINE
  5
108
100
AcDbEntity
  8
Layer_1
 62
7
100
AcDbPolyline
 90
8
 70
0
 10
86.179025
 20
23.960077
 30
0.0
 10
88.049628
 20
27.657781
 30
0.0
 10
86.179025
 20
31.355484
 30
0.0
 10
81.461003
 20
31.355484
 30
0.0
 10
79.590400
 20
27.657781
 30
0.0
 10
80.122308
 20
25.298770
 30
0.0
 10
83.820014
 20
23.428173
 30
0.0
 10
86.179025
 20
23.960077
 30
0.0
  0
LWPOLYLINE
  5
109
100
AcDbEntity
  8
Layer_1
 62
7
100
AcDbPolyline
 90
8
 70
0
 10
95.210136
 20
23.960077
 30
0.0
 10
97.080739
 20
27.657781
 30
0.0
 10
95.210136
 20
31.355484
 30
0.0
 10
90.492114
 20
31.355484
 30
0.0
 10
88.621512
 20
27.657781
 30
0.0
 10
90.492114
 20
23.960077
 30
0.0
 10
92.851125
 20
23.428173
 30
0.0
 10
95.210136
 20
23.960077
 30
0.0
  0
LWPOLYLINE
  5
10a
100
AcDbEntity
  8
Layer_1
 62
7
100
AcDbPolyline
 90
8
 70
0
 10
122.303469
 20
23.960077
 30
0.0
 10
124.174072
 20
27.657781
 30
0.0
 10
122.303469
 20
31.355484
 30
0.0
 10
117.585448
 20
31.355484
 30
0.0
 10
115.714845
 20
27.657781
 30
0.0
 10
117.585448
 20
23.960077
 30
0.0
 10
119.944459
 20
23.428173
 30
0.0
 10
122.303469
 20
23.960077
 30
0.0
  0
LWPOLYLINE
  5
10b
100
AcDbEntity
  8
Layer_1
 62
7
100
AcDbPolyline
 90
8
 70
0
 10
131.334581
 20
23.960077
 30
0.0
 10
133.205183
 20
27.657781
 30
0.0
 10
131.334581
 20
31.355484
 30
0.0
 10
126.616559
 20
31.355484
 30
0.0
 10
124.745956
 20
27.657781
 30
0.0
 10
126.616559
 20
23.960077
 30
0.0
 10
128.975570
 20
23.428173
 30
0.0
 10
131.334581
 20
23.960077
 30
0.0
  0
LWPOLYLINE
  5
10c
100
AcDbEntity
  8
Layer_1
 62
7
100
AcDbPolyline
 90
8
 70
0
 10
149.396803
 20
23.960077
 30
0.0
 10
151.267406
 20
27.657781
 30
0.0
 10
149.396803
 20
31.355484
 30
0.0
 10
144.678781
 20
31.355484
 30
0.0
 10
142.808178
 20
27.657781
 30
0.0
 10
144.678781
 20
23.960077
 30
0.0
 10
147.037792
 20
23.428173
 30
0.0
 10
149.396803
 20
23.960077
 30
0.0
  0
LWPOLYLINE
  5
10d
100
AcDbEntity
  8
Layer_1
 62
7
100
AcDbPolyline
 90
7
 70
0
 10
158.427914
 20
23.960077
 30
0.0
 10
160.298517
 20
27.657781
 30
0.0
 10
158.427914
 20
31.355484
 30
0.0
 10
153.709892
 20
31.355484
 30
0.0
 10
151.839289
 20
27.657781
 30
0.0
 10
156.068903
 20
23.428173
 30
0.0
 10
158.427914
 20
23.960077
 30
0.0
  0
LWPOLYLINE
  5
10e
100
AcDbEntity
  8
Layer_1
 62
7
100
AcDbPolyline
 90
6
 70
0
 10
167.555754
 20
23.977575
 30
0.0
 10
169.332289
 20
27.714423
 30
0.0
 10
165.100014
 20
31.891227
 30
0.0
 10
160.867736
 20
27.714423
 30
0.0
 10
165.100014
 20
23.426677
 30
0.0
 10
167.555754
 20
23.977575
 30
0.0
  0
LWPOLYLINE
  5
10f
100
AcDbEntity
  8
Layer_1
 62
7
100
AcDbPolyline
 90
6
 70
0
 10
176.586865
 20
23.977575
 30
0.0
 10
178.363400
 20
27.714423
 30
0.0
 10
174.131122
 20
31.891227
 30
0.0
 10
169.898845
 20
27.714423
 30
0.0
 10
174.131122
 20
23.426677
 30
0.0
 10
176.586865
 20
23.977575
 30
0.0
  0
LWPOLYLINE
  5
110
100
AcDbEntity
  8
Layer_1
 62
7
100
AcDbPolyline
 90
6
 70
0
 10
185.617976
 20
23.977575
 30
0.0
 10
187.394511
 20
27.714423
 30
0.0
 10
183.162234
 20
31.891227
 30
0.0
 10
178.929956
 20
27.714423
 30
0.0
 10
183.162234
 20
23.426677
 30
0.0
 10
185.617976
 20
23.977575
 30
0.0
  0
LWPOLYLINE
  5
111
100
AcDbEntity
  8
Layer_1
 62
7
100
AcDbPolyline
 90
6
 70
0
 10
194.649087
 20
23.977575
 30
0.0
 10
196.425622
 20
27.714423
 30
0.0
 10
192.193345
 20
31.891227
 30
0.0
 10
187.961067
 20
27.714423
 30
0.0
 10
192.193345
 20
23.426677
 30
0.0
 10
194.649087
 20
23.977575
 30
0.0
  0
LWPOLYLINE
  5
112
100
AcDbEntity
  8
Layer_1
 62
7
100
AcDbPolyline
 90
6
 70
0
 10
203.680198
 20
23.977575
 30
0.0
 10
205.456734
 20
27.714423
 30
0.0
 10
201.224456
 20
31.891227
 30
0.0
 10
196.992178
 20
27.714423
 30
0.0
 10
201.224456
 20
23.426677
 30
0.0
 10
203.680198
 20
23.977575
 30
0.0
  0
LWPOLYLINE
  5
113
100
AcDbEntity
  8
Layer_1
 62
7
100
AcDbPolyline
 90
6
 70
0
 10
212.711309
 20
23.977575
 30
0.0
 10
214.487845
 20
27.714423
 30
0.0
 10
210.255567
 20
31.891227
 30
0.0
 10
206.023289
 20
27.714423
 30
0.0
 10
210.255567
 20
23.426677
 30
0.0
 10
212.711309
 20
23.977575
 30
0.0
  0
LWPOLYLINE
  5
114
100
AcDbEntity
  8
Layer_1
 62
7
100
AcDbPolyline
 90
6
 70
0
 10
221.742421
 20
23.977575
 30
0.0
 10
223.518959
 20
27.714423
 30
0.0
 10
219.286678
 20
31.891227
 30
0.0
 10
215.054400
 20
27.714423
 30
0.0
 10
219.286678
 20
23.426677
 30
0.0
 10
221.742421
 20
23.977575
 30
0.0
  0
LWPOLYLINE
  5
115
100
AcDbEntity
  8
Layer_1
 62
7
100
AcDbPolyline
 90
6
 70
0
 10
257.866868
 20
23.977575
 30
0.0
 10
259.643403
 20
27.714423
 30
0.0
 10
255.411125
 20
31.891227
 30
0.0
 10
251.178847
 20
27.714423
 30
0.0
 10
255.411125
 20
23.426677
 30
0.0
 10
257.866868
 20
23.977575
 30
0.0
  0
LWPOLYLINE
  5
116
100
AcDbEntity
  8
Layer_1
 62
7
100
AcDbPolyline
 90
6
 70
0
 10
266.897979
 20
23.977575
 30
0.0
 10
268.674514
 20
27.714423
 30
0.0
 10
264.442236
 20
31.891227
 30
0.0
 10
260.209959
 20
27.714423
 30
0.0
 10
264.442236
 20
23.426677
 30
0.0
 10
266.897979
 20
23.977575
 30
0.0
  0
LWPOLYLINE
  5
117
100
AcDbEntity
  8
Layer_1
 62
7
100
AcDbPolyline
 90
6
 70
0
 10
275.929089
 20
23.977575
 30
0.0
 10
277.705624
 20
27.714423
 30
0.0
 10
273.473347
 20
31.891227
 30
0.0
 10
269.241070
 20
27.714423
 30
0.0
 10
273.473347
 20
23.426677
 30
0.0
 10
275.929089
 20
23.977575
 30
0.0
  0
LWPOLYLINE
  5
118
100
AcDbEntity
  8
Layer_1
 62
7
100
AcDbPolyline
 90
6
 70
0
 10
284.960214
 20
23.977575
 30
0.0
 10
286.736747
 20
27.714423
 30
0.0
 10
282.504458
 20
31.891227
 30
0.0
 10
278.272180
 20
27.714423
 30
0.0
 10
282.504458
 20
23.426677
 30
0.0
 10
284.960214
 20
23.977575
 30
0.0
  0
LWPOLYLINE
  5
119
100
AcDbEntity
  8
Layer_1
 62
7
100
AcDbPolyline
 90
6
 70
0
 10
293.991325
 20
23.977575
 30
0.0
 10
295.767858
 20
27.714423
 30
0.0
 10
291.535569
 20
31.891227
 30
0.0
 10
287.303280
 20
27.714423
 30
0.0
 10
291.535569
 20
23.426677
 30
0.0
 10
293.991325
 20
23.977575
 30
0.0
  0
LWPOLYLINE
  5
11a
100
AcDbEntity
  8
Layer_1
 62
7
100
AcDbPolyline
 90
6
 70
0
 10
303.022437
 20
23.977575
 30
0.0
 10
304.798969
 20
27.714423
 30
0.0
 10
300.566680
 20
31.891227
 30
0.0
 10
296.334391
 20
27.714423
 30
0.0
 10
300.566680
 20
23.426677
 30
0.0
 10
303.022437
 20
23.977575
 30
0.0
  0
LWPOLYLINE
  5
11b
100
AcDbEntity
  8
Layer_1
 62
7
100
AcDbPolyline
 90
6
 70
0
 10
312.053548
 20
23.977575
 30
0.0
 10
313.830080
 20
27.714423
 30
0.0
 10
309.597791
 20
31.891227
 30
0.0
 10
305.365502
 20
27.714423
 30
0.0
 10
309.597791
 20
23.426677
 30
0.0
 10
312.053548
 20
23.977575
 30
0.0
  0
LWPOLYLINE
  5
11c
100
AcDbEntity
  8
Layer_1
 62
7
100
AcDbPolyline
 90
6
 70
0
 10
321.084659
 20
23.977575
 30
0.0
 10
322.861191
 20
27.714423
 30
0.0
 10
318.628902
 20
31.891227
 30
0.0
 10
314.396613
 20
27.714423
 30
0.0
 10
318.628902
 20
23.426677
 30
0.0
 10
321.084659
 20
23.977575
 30
0.0
  0
LWPOLYLINE
  5
11d
100
AcDbEntity
  8
Layer_1
 62
7
100
AcDbPolyline
 90
6
 70
0
 10
348.177993
 20
23.977575
 30
0.0
 10
349.954525
 20
27.714423
 30
0.0
 10
345.722236
 20
31.891227
 30
0.0
 10
341.489947
 20
27.714423
 30
0.0
 10
345.722236
 20
23.426677
 30
0.0
 10
348.177993
 20
23.977575
 30
0.0
  0
LWPOLYLINE
  5
11e
100
AcDbEntity
  8
Layer_1
 62
7
100
AcDbPolyline
 90
6
 70
0
 10
357.209104
 20
23.977575
 30
0.0
 10
358.985637
 20
27.714423
 30
0.0
 10
354.753347
 20
31.891227
 30
0.0
 10
350.521058
 20
27.714423
 30
0.0
 10
354.753347
 20
23.426677
 30
0.0
 10
357.209104
 20
23.977575
 30
0.0
  0
LWPOLYLINE
  5
11f
100
AcDbEntity
  8
Layer_1
 62
7
100
AcDbPolyline
 90
6
 70
0
 10
420.426882
 20
23.977575
 30
0.0
 10
422.203414
 20
27.714423
 30
0.0
 10
417.971125
 20
31.891227
 30
0.0
 10
413.738836
 20
27.714423
 30
0.0
 10
417.971125
 20
23.426677
 30
0.0
 10
420.426882
 20
23.977575
 30
0.0
  0
LWPOLYLINE
  5
120
100
AcDbEntity
  8
Layer_1
 62
7
100
AcDbPolyline
 90
6
 70
0
 10
429.457993
 20
23.977575
 30
0.0
 10
431.234525
 20
27.714423
 30
0.0
 10
427.002236
 20
31.891227
 30
0.0
 10
422.769947
 20
27.714423
 30
0.0
 10
427.002236
 20
23.426677
 30
0.0
 10
429.457993
 20
23.977575
 30
0.0
  0
LWPOLYLINE
  5
121
100
AcDbEntity
  8
Layer_1
 62
7
100
AcDbPolyline
 90
6
 70
0
 10
447.520215
 20
23.977575
 30
0.0
 10
449.296748
 20
27.714423
 30
0.0
 10
445.064459
 20
31.891227
 30
0.0
 10
440.832169
 20
27.714423
 30
0.0
 10
445.064459
 20
23.426677
 30
0.0
 10
447.520215
 20
23.977575
 30
0.0
  0
LWPOLYLINE
  5
122
100
AcDbEntity
  8
Layer_1
 62
7
100
AcDbPolyline
 90
6
 70
0
 10
456.551326
 20
23.977575
 30
0.0
 10
458.327859
 20
27.714423
 30
0.0
 10
454.095570
 20
31.891227
 30
0.0
 10
449.863281
 20
27.714423
 30
0.0
 10
454.095570
 20
23.426677
 30
0.0
 10
456.551326
 20
23.977575
 30
0.0
  0
LWPOLYLINE
  5
123
100
AcDbEntity
  8
Layer_1
 62
7
100
AcDbPolyline
 90
6
 70
0
 10
483.644662
 20
23.977575
 30
0.0
 10
485.421195
 20
27.714423
 30
0.0
 10
481.188906
 20
31.891227
 30
0.0
 10
476.956617
 20
27.714423
 30
0.0
 10
481.188906
 20
23.426677
 30
0.0
 10
483.644662
 20
23.977575
 30
0.0
  0
LWPOLYLINE
  5
124
100
AcDbEntity
  8
Layer_1
 62
7
100
AcDbPolyline
 90
6
 70
0
 10
492.675774
 20
23.977575
 30
0.0
 10
494.452306
 20
27.714423
 30
0.0
 10
490.220017
 20
31.891227
 30
0.0
 10
485.987728
 20
27.714423
 30
0.0
 10
490.220017
 20
23.426677
 30
0.0
 10
492.675774
 20
23.977575
 30
0.0
  0
LWPOLYLINE
  5
125
100
AcDbEntity
  8
Layer_1
 62
7
100
AcDbPolyline
 90
6
 70
0
 10
501.706885
 20
23.977575
 30
0.0
 10
503.483417
 20
27.714423
 30
0.0
 10
499.251128
 20
31.891227
 30
0.0
 10
495.018839
 20
27.714423
 30
0.0
 10
499.251128
 20
23.426677
 30
0.0
 10
501.706885
 20
23.977575
 30
0.0
  0
LWPOLYLINE
  5
126
100
AcDbEntity
  8
Layer_1
 62
7
100
AcDbPolyline
 90
6
 70
0
 10
510.737996
 20
23.977575
 30
0.0
 10
512.514528
 20
27.714423
 30
0.0
 10
508.282239
 20
31.891227
 30
0.0
 10
504.049950
 20
27.714423
 30
0.0
 10
508.282239
 20
23.426677
 30
0.0
 10
510.737996
 20
23.977575
 30
0.0
  0
LWPOLYLINE
  5
127
100
AcDbEntity
  8
Layer_1
 62
7
100
AcDbPolyline
 90
6
 70
0
 10
519.769107
 20
23.977575
 30
0.0
 10
521.545639
 20
27.714423
 30
0.0
 10
517.313350
 20
31.891227
 30
0.0
 10
513.081061
 20
27.714423
 30
0.0
 10
517.313350
 20
23.426677
 30
0.0
 10
519.769107
 20
23.977575
 30
0.0
  0
LWPOLYLINE
  5
128
100
AcDbEntity
  8
Layer_1
 62
7
100
AcDbPolyline
 90
6
 70
0
 10
528.800218
 20
23.977575
 30
0.0
 10
530.576750
 20
27.714423
 30
0.0
 10
526.344461
 20
31.891227
 30
0.0
 10
522.112172
 20
27.714423
 30
0.0
 10
526.344461
 20
23.426677
 30
0.0
 10
528.800218
 20
23.977575
 30
0.0
  0
LWPOLYLINE
  5
129
100
AcDbEntity
  8
Layer_1
 62
7
100
AcDbPolyline
 90
6
 70
0
 10
537.831329
 20
23.977575
 30
0.0
 10
539.607862
 20
27.714423
 30
0.0
 10
535.375572
 20
31.891227
 30
0.0
 10
531.143283
 20
27.714423
 30
0.0
 10
535.375572
 20
23.426677
 30
0.0
 10
537.831329
 20
23.977575
 30
0.0
  0
LWPOLYLINE
  5
12a
100
AcDbEntity
  8
Layer_1
 62
7
100
AcDbPolyline
 90
6
 70
0
 10
546.862440
 20
23.977575
 30
0.0
 10
548.638973
 20
27.714423
 30
0.0
 10
544.406684
 20
31.891227
 30
0.0
 10
540.174394
 20
27.714423
 30
0.0
 10
544.406684
 20
23.426677
 30
0.0
 10
546.862440
 20
23.977575
 30
0.0
  0
LWPOLYLINE
  5
12b
100
AcDbEntity
  8
Layer_1
 62
7
100
AcDbPolyline
 90
6
 70
0
 10
573.955774
 20
23.977575
 30
0.0
 10
575.732306
 20
27.714423
 30
0.0
 10
571.500017
 20
31.891227
 30
0.0
 10
567.267728
 20
27.714423
 30
0.0
 10
571.500017
 20
23.426677
 30
0.0
 10
573.955774
 20
23.977575
 30
0.0
  0
LWPOLYLINE
  5
12c
100
AcDbEntity
  8
Layer_1
 62
7
100
AcDbPolyline
 90
6
 70
0
 10
582.986885
 20
23.977575
 30
0.0
 10
584.763428
 20
27.714423
 30
0.0
 10
580.531128
 20
31.891227
 30
0.0
 10
576.298839
 20
27.714423
 30
0.0
 10
580.531128
 20
23.426677
 30
0.0
 10
582.986885
 20
23.977575
 30
0.0
  0
LWPOLYLINE
  5
12d
100
AcDbEntity
  8
Layer_1
 62
7
100
AcDbPolyline
 90
6
 70
0
 10
646.107928
 20
23.960077
 30
0.0
 10
647.978525
 20
27.657781
 30
0.0
 10
643.748917
 20
31.887389
 30
0.0
 10
639.519309
 20
27.657781
 30
0.0
 10
643.748917
 20
23.428173
 30
0.0
 10
646.107928
 20
23.960077
 30
0.0
  0
LWPOLYLINE
  5
12e
100
AcDbEntity
  8
Layer_1
 62
7
100
AcDbPolyline
 90
6
 70
0
 10
655.139039
 20
23.960077
 30
0.0
 10
657.009636
 20
27.657781
 30
0.0
 10
652.780028
 20
31.887389
 30
0.0
 10
648.550420
 20
27.657781
 30
0.0
 10
652.780028
 20
23.428173
 30
0.0
 10
655.139039
 20
23.960077
 30
0.0
  0
LWPOLYLINE
  5
12f
100
AcDbEntity
  8
Layer_1
 62
7
100
AcDbPolyline
 90
6
 70
0
 10
709.325706
 20
23.960077
 30
0.0
 10
711.196303
 20
27.657781
 30
0.0
 10
706.966695
 20
31.887389
 30
0.0
 10
702.737087
 20
27.657781
 30
0.0
 10
706.966695
 20
23.428173
 30
0.0
 10
709.325706
 20
23.960077
 30
0.0
  0
LWPOLYLINE
  5
130
100
AcDbEntity
  8
Layer_1
 62
7
100
AcDbPolyline
 90
6
 70
0
 10
718.356817
 20
23.960077
 30
0.0
 10
720.227414
 20
27.657781
 30
0.0
 10
715.997806
 20
31.887389
 30
0.0
 10
711.768198
 20
27.657781
 30
0.0
 10
715.997806
 20
23.428173
 30
0.0
 10
718.356817
 20
23.960077
 30
0.0
  0
LWPOLYLINE
  5
131
100
AcDbEntity
  8
Layer_1
 62
7
100
AcDbPolyline
 90
6
 70
0
 10
22.961247
 20
32.991188
 30
0.0
 10
24.831850
 20
36.688892
 30
0.0
 10
20.602236
 20
40.918501
 30
0.0
 10
16.372614
 20
36.688892
 30
0.0
 10
20.602236
 20
32.459284
 30
0.0
 10
22.961247
 20
32.991188
 30
0.0
  0
LWPOLYLINE
  5
132
100
AcDbEntity
  8
Layer_1
 62
7
100
AcDbPolyline
 90
6
 70
0
 10
32.089090
 20
33.008686
 30
0.0
 10
33.865625
 20
36.745534
 30
0.0
 10
29.633347
 20
40.922339
 30
0.0
 10
25.401070
 20
36.745534
 30
0.0
 10
29.633347
 20
32.457788
 30
0.0
 10
32.089090
 20
33.008686
 30
0.0
  0
LWPOLYLINE
  5
133
100
AcDbEntity
  8
Layer_1
 62
7
100
AcDbPolyline
 90
6
 70
0
 10
41.120201
 20
33.008686
 30
0.0
 10
42.896736
 20
36.745534
 30
0.0
 10
38.664459
 20
40.922339
 30
0.0
 10
34.432181
 20
36.745534
 30
0.0
 10
38.664459
 20
32.457788
 30
0.0
 10
41.120201
 20
33.008686
 30
0.0
  0
LWPOLYLINE
  5
134
100
AcDbEntity
  8
Layer_1
 62
7
100
AcDbPolyline
 90
6
 70
0
 10
50.151312
 20
33.008686
 30
0.0
 10
51.927847
 20
36.745534
 30
0.0
 10
47.695570
 20
40.922339
 30
0.0
 10
43.463292
 20
36.745534
 30
0.0
 10
47.695570
 20
32.457788
 30
0.0
 10
50.151312
 20
33.008686
 30
0.0
  0
LWPOLYLINE
  5
135
100
AcDbEntity
  8
Layer_1
 62
7
100
AcDbPolyline
 90
6
 70
0
 10
59.182423
 20
33.008686
 30
0.0
 10
60.958959
 20
36.745534
 30
0.0
 10
56.726681
 20
40.922339
 30
0.0
 10
52.494403
 20
36.745534
 30
0.0
 10
56.726681
 20
32.457788
 30
0.0
 10
59.182423
 20
33.008686
 30
0.0
  0
LWPOLYLINE
  5
136
100
AcDbEntity
  8
Layer_1
 62
7
100
AcDbPolyline
 90
6
 70
0
 10
68.213534
 20
33.008686
 30
0.0
 10
69.990070
 20
36.745534
 30
0.0
 10
65.757792
 20
40.922339
 30
0.0
 10
61.525514
 20
36.745534
 30
0.0
 10
65.757792
 20
32.457788
 30
0.0
 10
68.213534
 20
33.008686
 30
0.0
  0
LWPOLYLINE
  5
137
100
AcDbEntity
  8
Layer_1
 62
7
100
AcDbPolyline
 90
6
 70
0
 10
77.244646
 20
33.008686
 30
0.0
 10
79.021181
 20
36.745534
 30
0.0
 10
74.788903
 20
40.922339
 30
0.0
 10
70.556625
 20
36.745534
 30
0.0
 10
74.788903
 20
32.457788
 30
0.0
 10
77.244646
 20
33.008686
 30
0.0
  0
LWPOLYLINE
  5
138
100
AcDbEntity
  8
Layer_1
 62
7
100
AcDbPolyline
 90
6
 70
0
 10
86.275757
 20
33.008686
 30
0.0
 10
88.052292
 20
36.745534
 30
0.0
 10
83.820014
 20
40.922339
 30
0.0
 10
79.587736
 20
36.745534
 30
0.0
 10
83.820014
 20
32.457788
 30
0.0
 10
86.275757
 20
33.008686
 30
0.0
  0
LWPOLYLINE
  5
139
100
AcDbEntity
  8
Layer_1
 62
7
100
AcDbPolyline
 90
6
 70
0
 10
95.306868
 20
33.008686
 30
0.0
 10
97.083403
 20
36.745534
 30
0.0
 10
92.851125
 20
40.922339
 30
0.0
 10
88.618847
 20
36.745534
 30
0.0
 10
92.851125
 20
32.457788
 30
0.0
 10
95.306868
 20
33.008686
 30
0.0
  0
LWPOLYLINE
  5
13a
100
AcDbEntity
  8
Layer_1
 62
7
100
AcDbPolyline
 90
6
 70
0
 10
104.337979
 20
33.008686
 30
0.0
 10
106.114514
 20
36.745534
 30
0.0
 10
101.882236
 20
40.922339
 30
0.0
 10
97.649959
 20
36.745534
 30
0.0
 10
101.882236
 20
32.457788
 30
0.0
 10
104.337979
 20
33.008686
 30
0.0
  0
LWPOLYLINE
  5
13b
100
AcDbEntity
  8
Layer_1
 62
7
100
AcDbPolyline
 90
6
 70
0
 10
122.400201
 20
33.008686
 30
0.0
 10
124.176736
 20
36.745534
 30
0.0
 10
119.944459
 20
40.922339
 30
0.0
 10
115.712181
 20
36.745534
 30
0.0
 10
119.944459
 20
32.457788
 30
0.0
 10
122.400201
 20
33.008686
 30
0.0
  0
LWPOLYLINE
  5
13c
100
AcDbEntity
  8
Layer_1
 62
7
100
AcDbPolyline
 90
6
 70
0
 10
131.431312
 20
33.008686
 30
0.0
 10
133.207847
 20
36.745534
 30
0.0
 10
128.975570
 20
40.922339
 30
0.0
 10
124.743292
 20
36.745534
 30
0.0
 10
128.975570
 20
32.457788
 30
0.0
 10
131.431312
 20
33.008686
 30
0.0
  0
LWPOLYLINE
  5
13d
100
AcDbEntity
  8
Layer_1
 62
7
100
AcDbPolyline
 90
6
 70
0
 10
149.493534
 20
33.008686
 30
0.0
 10
151.270070
 20
36.745534
 30
0.0
 10
147.037792
 20
40.922339
 30
0.0
 10
142.805514
 20
36.745534
 30
0.0
 10
147.037792
 20
32.457788
 30
0.0
 10
149.493534
 20
33.008686
 30
0.0
  0
LWPOLYLINE
  5
13e
100
AcDbEntity
  8
Layer_1
 62
7
100
AcDbPolyline
 90
6
 70
0
 10
158.524646
 20
33.008686
 30
0.0
 10
160.301181
 20
36.745534
 30
0.0
 10
156.068903
 20
40.922339
 30
0.0
 10
151.836625
 20
36.745534
 30
0.0
 10
156.068903
 20
32.457788
 30
0.0
 10
158.524646
 20
33.008686
 30
0.0
  0
LWPOLYLINE
  5
13f
100
AcDbEntity
  8
Layer_1
 62
7
100
AcDbPolyline
 90
6
 70
0
 10
167.555754
 20
33.008686
 30
0.0
 10
169.332289
 20
36.745534
 30
0.0
 10
165.100014
 20
40.922339
 30
0.0
 10
160.867736
 20
36.745534
 30
0.0
 10
165.100014
 20
32.457788
 30
0.0
 10
167.555754
 20
33.008686
 30
0.0
  0
LWPOLYLINE
  5
140
100
AcDbEntity
  8
Layer_1
 62
7
100
AcDbPolyline
 90
6
 70
0
 10
176.586865
 20
33.008686
 30
0.0
 10
178.363400
 20
36.745534
 30
0.0
 10
174.131122
 20
40.922339
 30
0.0
 10
169.898845
 20
36.745534
 30
0.0
 10
174.131122
 20
32.457788
 30
0.0
 10
176.586865
 20
33.008686
 30
0.0
  0
LWPOLYLINE
  5
141
100
AcDbEntity
  8
Layer_1
 62
7
100
AcDbPolyline
 90
6
 70
0
 10
185.617976
 20
33.008686
 30
0.0
 10
187.394511
 20
36.745534
 30
0.0
 10
183.162234
 20
40.922339
 30
0.0
 10
178.929956
 20
36.745534
 30
0.0
 10
183.162234
 20
32.457788
 30
0.0
 10
185.617976
 20
33.008686
 30
0.0
  0
LWPOLYLINE
  5
142
100
AcDbEntity
  8
Layer_1
 62
7
100
AcDbPolyline
 90
6
 70
0
 10
194.649087
 20
33.008686
 30
0.0
 10
196.425622
 20
36.745534
 30
0.0
 10
192.193345
 20
40.922339
 30
0.0
 10
187.961067
 20
36.745534
 30
0.0
 10
192.193345
 20
32.457788
 30
0.0
 10
194.649087
 20
33.008686
 30
0.0
  0
LWPOLYLINE
  5
143
100
AcDbEntity
  8
Layer_1
 62
7
100
AcDbPolyline
 90
6
 70
0
 10
203.680198
 20
33.008686
 30
0.0
 10
205.456734
 20
36.745534
 30
0.0
 10
201.224456
 20
40.922339
 30
0.0
 10
196.992178
 20
36.745534
 30
0.0
 10
201.224456
 20
32.457788
 30
0.0
 10
203.680198
 20
33.008686
 30
0.0
  0
LWPOLYLINE
  5
144
100
AcDbEntity
  8
Layer_1
 62
7
100
AcDbPolyline
 90
6
 70
0
 10
212.711309
 20
33.008686
 30
0.0
 10
214.487845
 20
36.745534
 30
0.0
 10
210.255567
 20
40.922339
 30
0.0
 10
206.023289
 20
36.745534
 30
0.0
 10
210.255567
 20
32.457788
 30
0.0
 10
212.711309
 20
33.008686
 30
0.0
  0
LWPOLYLINE
  5
145
100
AcDbEntity
  8
Layer_1
 62
7
100
AcDbPolyline
 90
6
 70
0
 10
221.742421
 20
33.008686
 30
0.0
 10
223.518959
 20
36.745534
 30
0.0
 10
219.286678
 20
40.922339
 30
0.0
 10
215.054400
 20
36.745534
 30
0.0
 10
219.286678
 20
32.457788
 30
0.0
 10
221.742421
 20
33.008686
 30
0.0
  0
LWPOLYLINE
  5
146
100
AcDbEntity
  8
Layer_1
 62
7
100
AcDbPolyline
 90
6
 70
0
 10
230.773534
 20
33.008686
 30
0.0
 10
232.550070
 20
36.745534
 30
0.0
 10
228.317792
 20
40.922339
 30
0.0
 10
224.085514
 20
36.745534
 30
0.0
 10
228.317792
 20
32.457788
 30
0.0
 10
230.773534
 20
33.008686
 30
0.0
  0
LWPOLYLINE
  5
147
100
AcDbEntity
  8
Layer_1
 62
7
100
AcDbPolyline
 90
6
 70
0
 10
248.835757
 20
33.008686
 30
0.0
 10
250.612292
 20
36.745534
 30
0.0
 10
246.380014
 20
40.922339
 30
0.0
 10
242.147736
 20
36.745534
 30
0.0
 10
246.380014
 20
32.457788
 30
0.0
 10
248.835757
 20
33.008686
 30
0.0
  0
LWPOLYLINE
  5
148
100
AcDbEntity
  8
Layer_1
 62
7
100
AcDbPolyline
 90
6
 70
0
 10
257.866868
 20
33.008686
 30
0.0
 10
259.643403
 20
36.745534
 30
0.0
 10
255.411125
 20
40.922339
 30
0.0
 10
251.178847
 20
36.745534
 30
0.0
 10
255.411125
 20
32.457788
 30
0.0
 10
257.866868
 20
33.008686
 30
0.0
  0
LWPOLYLINE
  5
149
100
AcDbEntity
  8
Layer_1
 62
7
100
AcDbPolyline
 90
6
 70
0
 10
266.897979
 20
33.008686
 30
0.0
 10
268.674514
 20
36.745534
 30
0.0
 10
264.442236
 20
40.922339
 30
0.0
 10
260.209959
 20
36.745534
 30
0.0
 10
264.442236
 20
32.457788
 30
0.0
 10
266.897979
 20
33.008686
 30
0.0
  0
LWPOLYLINE
  5
14a
100
AcDbEntity
  8
Layer_1
 62
7
100
AcDbPolyline
 90
6
 70
0
 10
275.929089
 20
33.008686
 30
0.0
 10
277.705624
 20
36.745534
 30
0.0
 10
273.473347
 20
40.922339
 30
0.0
 10
269.241070
 20
36.745534
 30
0.0
 10
273.473347
 20
32.457788
 30
0.0
 10
275.929089
 20
33.008686
 30
0.0
  0
LWPOLYLINE
  5
14b
100
AcDbEntity
  8
Layer_1
 62
7
100
AcDbPolyline
 90
6
 70
0
 10
284.960214
 20
33.008686
 30
0.0
 10
286.736747
 20
36.745534
 30
0.0
 10
282.504458
 20
40.922339
 30
0.0
 10
278.272180
 20
36.745534
 30
0.0
 10
282.504458
 20
32.457788
 30
0.0
 10
284.960214
 20
33.008686
 30
0.0
  0
LWPOLYLINE
  5
14c
100
AcDbEntity
  8
Layer_1
 62
7
100
AcDbPolyline
 90
6
 70
0
 10
293.991325
 20
33.008686
 30
0.0
 10
295.767858
 20
36.745534
 30
0.0
 10
291.535569
 20
40.922339
 30
0.0
 10
287.303280
 20
36.745534
 30
0.0
 10
291.535569
 20
32.457788
 30
0.0
 10
293.991325
 20
33.008686
 30
0.0
  0
LWPOLYLINE
  5
14d
100
AcDbEntity
  8
Layer_1
 62
7
100
AcDbPolyline
 90
6
 70
0
 10
303.022437
 20
33.008686
 30
0.0
 10
304.798969
 20
36.745534
 30
0.0
 10
300.566680
 20
40.922339
 30
0.0
 10
296.334391
 20
36.745534
 30
0.0
 10
300.566680
 20
32.457788
 30
0.0
 10
303.022437
 20
33.008686
 30
0.0
  0
LWPOLYLINE
  5
14e
100
AcDbEntity
  8
Layer_1
 62
7
100
AcDbPolyline
 90
6
 70
0
 10
312.053548
 20
33.008686
 30
0.0
 10
313.830080
 20
36.745534
 30
0.0
 10
309.597791
 20
40.922339
 30
0.0
 10
305.365502
 20
36.745534
 30
0.0
 10
309.597791
 20
32.457788
 30
0.0
 10
312.053548
 20
33.008686
 30
0.0
  0
LWPOLYLINE
  5
14f
100
AcDbEntity
  8
Layer_1
 62
7
100
AcDbPolyline
 90
6
 70
0
 10
321.084659
 20
33.008686
 30
0.0
 10
322.861191
 20
36.745534
 30
0.0
 10
318.628902
 20
40.922339
 30
0.0
 10
314.396613
 20
36.745534
 30
0.0
 10
318.628902
 20
32.457788
 30
0.0
 10
321.084659
 20
33.008686
 30
0.0
  0
LWPOLYLINE
  5
150
100
AcDbEntity
  8
Layer_1
 62
7
100
AcDbPolyline
 90
6
 70
0
 10
330.115770
 20
33.008686
 30
0.0
 10
331.892303
 20
36.745534
 30
0.0
 10
327.660013
 20
40.922339
 30
0.0
 10
323.427724
 20
36.745534
 30
0.0
 10
327.660013
 20
32.457788
 30
0.0
 10
330.115770
 20
33.008686
 30
0.0
  0
LWPOLYLINE
  5
151
100
AcDbEntity
  8
Layer_1
 62
7
100
AcDbPolyline
 90
6
 70
0
 10
348.177993
 20
33.008686
 30
0.0
 10
349.954525
 20
36.745534
 30
0.0
 10
345.722236
 20
40.922339
 30
0.0
 10
341.489947
 20
36.745534
 30
0.0
 10
345.722236
 20
32.457788
 30
0.0
 10
348.177993
 20
33.008686
 30
0.0
  0
LWPOLYLINE
  5
152
100
AcDbEntity
  8
Layer_1
 62
7
100
AcDbPolyline
 90
6
 70
0
 10
357.209104
 20
33.008686
 30
0.0
 10
358.985637
 20
36.745534
 30
0.0
 10
354.753347
 20
40.922339
 30
0.0
 10
350.521058
 20
36.745534
 30
0.0
 10
354.753347
 20
32.457788
 30
0.0
 10
357.209104
 20
33.008686
 30
0.0
  0
LWPOLYLINE
  5
153
100
AcDbEntity
  8
Layer_1
 62
7
100
AcDbPolyline
 90
6
 70
0
 10
411.395771
 20
33.008686
 30
0.0
 10
413.172303
 20
36.745534
 30
0.0
 10
408.940014
 20
40.922339
 30
0.0
 10
404.707725
 20
36.745534
 30
0.0
 10
408.940014
 20
32.457788
 30
0.0
 10
411.395771
 20
33.008686
 30
0.0
  0
LWPOLYLINE
  5
154
100
AcDbEntity
  8
Layer_1
 62
7
100
AcDbPolyline
 90
6
 70
0
 10
420.426882
 20
33.008686
 30
0.0
 10
422.203414
 20
36.745534
 30
0.0
 10
417.971125
 20
40.922339
 30
0.0
 10
413.738836
 20
36.745534
 30
0.0
 10
417.971125
 20
32.457788
 30
0.0
 10
420.426882
 20
33.008686
 30
0.0
  0
LWPOLYLINE
  5
155
100
AcDbEntity
  8
Layer_1
 62
7
100
AcDbPolyline
 90
6
 70
0
 10
429.457993
 20
33.008686
 30
0.0
 10
431.234525
 20
36.745534
 30
0.0
 10
427.002236
 20
40.922339
 30
0.0
 10
422.769947
 20
36.745534
 30
0.0
 10
427.002236
 20
32.457788
 30
0.0
 10
429.457993
 20
33.008686
 30
0.0
  0
LWPOLYLINE
  5
156
100
AcDbEntity
  8
Layer_1
 62
7
100
AcDbPolyline
 90
6
 70
0
 10
447.520215
 20
33.008686
 30
0.0
 10
449.296748
 20
36.745534
 30
0.0
 10
445.064459
 20
40.922339
 30
0.0
 10
440.832169
 20
36.745534
 30
0.0
 10
445.064459
 20
32.457788
 30
0.0
 10
447.520215
 20
33.008686
 30
0.0
  0
LWPOLYLINE
  5
157
100
AcDbEntity
  8
Layer_1
 62
7
100
AcDbPolyline
 90
6
 70
0
 10
456.551326
 20
33.008686
 30
0.0
 10
458.327859
 20
36.745534
 30
0.0
 10
454.095570
 20
40.922339
 30
0.0
 10
449.863281
 20
36.745534
 30
0.0
 10
454.095570
 20
32.457788
 30
0.0
 10
456.551326
 20
33.008686
 30
0.0
  0
LWPOLYLINE
  5
158
100
AcDbEntity
  8
Layer_1
 62
7
100
AcDbPolyline
 90
6
 70
0
 10
474.613549
 20
33.008686
 30
0.0
 10
476.390084
 20
36.745534
 30
0.0
 10
472.157792
 20
40.922339
 30
0.0
 10
467.925503
 20
36.745534
 30
0.0
 10
472.157792
 20
32.457788
 30
0.0
 10
474.613549
 20
33.008686
 30
0.0
  0
LWPOLYLINE
  5
159
100
AcDbEntity
  8
Layer_1
 62
7
100
AcDbPolyline
 90
6
 70
0
 10
483.644662
 20
33.008686
 30
0.0
 10
485.421195
 20
36.745534
 30
0.0
 10
481.188906
 20
40.922339
 30
0.0
 10
476.956617
 20
36.745534
 30
0.0
 10
481.188906
 20
32.457788
 30
0.0
 10
483.644662
 20
33.008686
 30
0.0
  0
LWPOLYLINE
  5
15a
100
AcDbEntity
  8
Layer_1
 62
7
100
AcDbPolyline
 90
6
 70
0
 10
492.675774
 20
33.008686
 30
0.0
 10
494.452306
 20
36.745534
 30
0.0
 10
490.220017
 20
40.922339
 30
0.0
 10
485.987728
 20
36.745534
 30
0.0
 10
490.220017
 20
32.457788
 30
0.0
 10
492.675774
 20
33.008686
 30
0.0
  0
LWPOLYLINE
  5
15b
100
AcDbEntity
  8
Layer_1
 62
7
100
AcDbPolyline
 90
6
 70
0
 10
501.706885
 20
33.008686
 30
0.0
 10
503.483417
 20
36.745534
 30
0.0
 10
499.251128
 20
40.922339
 30
0.0
 10
495.018839
 20
36.745534
 30
0.0
 10
499.251128
 20
32.457788
 30
0.0
 10
501.706885
 20
33.008686
 30
0.0
  0
LWPOLYLINE
  5
15c
100
AcDbEntity
  8
Layer_1
 62
7
100
AcDbPolyline
 90
6
 70
0
 10
510.737996
 20
33.008686
 30
0.0
 10
512.514528
 20
36.745534
 30
0.0
 10
508.282239
 20
40.922339
 30
0.0
 10
504.049950
 20
36.745534
 30
0.0
 10
508.282239
 20
32.457788
 30
0.0
 10
510.737996
 20
33.008686
 30
0.0
  0
LWPOLYLINE
  5
15d
100
AcDbEntity
  8
Layer_1
 62
7
100
AcDbPolyline
 90
6
 70
0
 10
519.769107
 20
33.008686
 30
0.0
 10
521.545639
 20
36.745534
 30
0.0
 10
517.313350
 20
40.922339
 30
0.0
 10
513.081061
 20
36.745534
 30
0.0
 10
517.313350
 20
32.457788
 30
0.0
 10
519.769107
 20
33.008686
 30
0.0
  0
LWPOLYLINE
  5
15e
100
AcDbEntity
  8
Layer_1
 62
7
100
AcDbPolyline
 90
6
 70
0
 10
528.800218
 20
33.008686
 30
0.0
 10
530.576750
 20
36.745534
 30
0.0
 10
526.344461
 20
40.922339
 30
0.0
 10
522.112172
 20
36.745534
 30
0.0
 10
526.344461
 20
32.457788
 30
0.0
 10
528.800218
 20
33.008686
 30
0.0
  0
LWPOLYLINE
  5
15f
100
AcDbEntity
  8
Layer_1
 62
7
100
AcDbPolyline
 90
6
 70
0
 10
537.831329
 20
33.008686
 30
0.0
 10
539.607862
 20
36.745534
 30
0.0
 10
535.375572
 20
40.922339
 30
0.0
 10
531.143283
 20
36.745534
 30
0.0
 10
535.375572
 20
32.457788
 30
0.0
 10
537.831329
 20
33.008686
 30
0.0
  0
LWPOLYLINE
  5
160
100
AcDbEntity
  8
Layer_1
 62
7
100
AcDbPolyline
 90
6
 70
0
 10
546.862440
 20
33.008686
 30
0.0
 10
548.638973
 20
36.745534
 30
0.0
 10
544.406684
 20
40.922339
 30
0.0
 10
540.174394
 20
36.745534
 30
0.0
 10
544.406684
 20
32.457788
 30
0.0
 10
546.862440
 20
33.008686
 30
0.0
  0
LWPOLYLINE
  5
161
100
AcDbEntity
  8
Layer_1
 62
7
100
AcDbPolyline
 90
6
 70
0
 10
573.955774
 20
33.008686
 30
0.0
 10
575.732306
 20
36.745534
 30
0.0
 10
571.500017
 20
40.922339
 30
0.0
 10
567.267728
 20
36.745534
 30
0.0
 10
571.500017
 20
32.457788
 30
0.0
 10
573.955774
 20
33.008686
 30
0.0
  0
LWPOLYLINE
  5
162
100
AcDbEntity
  8
Layer_1
 62
7
100
AcDbPolyline
 90
6
 70
0
 10
582.986885
 20
33.008686
 30
0.0
 10
584.763428
 20
36.745534
 30
0.0
 10
580.531128
 20
40.922339
 30
0.0
 10
576.298839
 20
36.745534
 30
0.0
 10
580.531128
 20
32.457788
 30
0.0
 10
582.986885
 20
33.008686
 30
0.0
  0
LWPOLYLINE
  5
163
100
AcDbEntity
  8
Layer_1
 62
7
100
AcDbPolyline
 90
6
 70
0
 10
646.204674
 20
33.008686
 30
0.0
 10
647.981206
 20
36.745534
 30
0.0
 10
643.748917
 20
40.922339
 30
0.0
 10
639.516628
 20
36.745534
 30
0.0
 10
643.748917
 20
32.457788
 30
0.0
 10
646.204674
 20
33.008686
 30
0.0
  0
LWPOLYLINE
  5
164
100
AcDbEntity
  8
Layer_1
 62
7
100
AcDbPolyline
 90
6
 70
0
 10
655.235785
 20
33.008686
 30
0.0
 10
657.012317
 20
36.745534
 30
0.0
 10
652.780028
 20
40.922339
 30
0.0
 10
648.547739
 20
36.745534
 30
0.0
 10
652.780028
 20
32.457788
 30
0.0
 10
655.235785
 20
33.008686
 30
0.0
  0
LWPOLYLINE
  5
165
100
AcDbEntity
  8
Layer_1
 62
7
100
AcDbPolyline
 90
6
 70
0
 10
709.422452
 20
33.008686
 30
0.0
 10
711.198984
 20
36.745534
 30
0.0
 10
706.966695
 20
40.922339
 30
0.0
 10
702.734406
 20
36.745534
 30
0.0
 10
706.966695
 20
32.457788
 30
0.0
 10
709.422452
 20
33.008686
 30
0.0
  0
LWPOLYLINE
  5
166
100
AcDbEntity
  8
Layer_1
 62
7
100
AcDbPolyline
 90
6
 70
0
 10
718.453563
 20
33.008686
 30
0.0
 10
720.230095
 20
36.745534
 30
0.0
 10
715.997806
 20
40.922339
 30
0.0
 10
711.765517
 20
36.745534
 30
0.0
 10
715.997806
 20
32.457788
 30
0.0
 10
718.453563
 20
33.008686
 30
0.0
  0
LWPOLYLINE
  5
167
100
AcDbEntity
  8
Layer_1
 62
7
100
AcDbPolyline
 90
7
 70
0
 10
22.961247
 20
42.022300
 30
0.0
 10
24.831850
 20
45.720004
 30
0.0
 10
20.602236
 20
49.949612
 30
0.0
 10
16.904518
 20
48.079015
 30
0.0
 10
16.904518
 20
43.360993
 30
0.0
 10
20.602236
 20
41.490396
 30
0.0
 10
22.961247
 20
42.022300
 30
0.0
  0
LWPOLYLINE
  5
168
100
AcDbEntity
  8
Layer_1
 62
7
100
AcDbPolyline
 90
7
 70
0
 10
31.992358
 20
42.022300
 30
0.0
 10
33.862961
 20
45.720004
 30
0.0
 10
29.633347
 20
49.949612
 30
0.0
 10
27.274337
 20
49.417708
 30
0.0
 10
25.403734
 20
45.720004
 30
0.0
 10
29.633347
 20
41.490396
 30
0.0
 10
31.992358
 20
42.022300
 30
0.0
  0
LWPOLYLINE
  5
169
100
AcDbEntity
  8
Layer_1
 62
7
100
AcDbPolyline
 90
7
 70
0
 10
95.210136
 20
42.022300
 30
0.0
 10
97.080739
 20
45.720004
 30
0.0
 10
92.851125
 20
49.949612
 30
0.0
 10
88.621512
 20
45.720004
 30
0.0
 10
90.492114
 20
42.022300
 30
0.0
 10
92.851125
 20
41.490396
 30
0.0
 10
95.210136
 20
42.022300
 30
0.0
  0
LWPOLYLINE
  5
16a
100
AcDbEntity
  8
Layer_1
 62
7
100
AcDbPolyline
 90
7
 70
0
 10
104.241247
 20
42.022300
 30
0.0
 10
106.111850
 20
45.720004
 30
0.0
 10
101.882236
 20
49.949612
 30
0.0
 10
97.652623
 20
45.720004
 30
0.0
 10
99.523225
 20
42.022300
 30
0.0
 10
101.882236
 20
41.490396
 30
0.0
 10
104.241247
 20
42.022300
 30
0.0
  0
LWPOLYLINE
  5
16b
100
AcDbEntity
  8
Layer_1
 62
7
100
AcDbPolyline
 90
7
 70
0
 10
122.303469
 20
42.022300
 30
0.0
 10
124.174072
 20
45.720004
 30
0.0
 10
119.944459
 20
49.949612
 30
0.0
 10
115.714845
 20
45.720004
 30
0.0
 10
117.585448
 20
42.022300
 30
0.0
 10
119.944459
 20
41.490396
 30
0.0
 10
122.303469
 20
42.022300
 30
0.0
  0
LWPOLYLINE
  5
16c
100
AcDbEntity
  8
Layer_1
 62
7
100
AcDbPolyline
 90
7
 70
0
 10
131.334581
 20
42.022300
 30
0.0
 10
133.205183
 20
45.720004
 30
0.0
 10
128.975570
 20
49.949612
 30
0.0
 10
124.745956
 20
45.720004
 30
0.0
 10
126.616559
 20
42.022300
 30
0.0
 10
128.975570
 20
41.490396
 30
0.0
 10
131.334581
 20
42.022300
 30
0.0
  0
LWPOLYLINE
  5
16d
100
AcDbEntity
  8
Layer_1
 62
7
100
AcDbPolyline
 90
6
 70
0
 10
221.742421
 20
42.039798
 30
0.0
 10
223.518959
 20
45.776646
 30
0.0
 10
219.286678
 20
49.953450
 30
0.0
 10
215.054400
 20
45.776646
 30
0.0
 10
219.286678
 20
41.488900
 30
0.0
 10
221.742421
 20
42.039798
 30
0.0
  0
LWPOLYLINE
  5
16e
100
AcDbEntity
  8
Layer_1
 62
7
100
AcDbPolyline
 90
6
 70
0
 10
230.773534
 20
42.039798
 30
0.0
 10
232.550070
 20
45.776646
 30
0.0
 10
228.317792
 20
49.953450
 30
0.0
 10
224.085514
 20
45.776646
 30
0.0
 10
228.317792
 20
41.488900
 30
0.0
 10
230.773534
 20
42.039798
 30
0.0
  0
LWPOLYLINE
  5
16f
100
AcDbEntity
  8
Layer_1
 62
7
100
AcDbPolyline
 90
6
 70
0
 10
248.835757
 20
42.039798
 30
0.0
 10
250.612292
 20
45.776646
 30
0.0
 10
246.380014
 20
49.953450
 30
0.0
 10
242.147736
 20
45.776646
 30
0.0
 10
246.380014
 20
41.488900
 30
0.0
 10
248.835757
 20
42.039798
 30
0.0
  0
LWPOLYLINE
  5
170
100
AcDbEntity
  8
Layer_1
 62
7
100
AcDbPolyline
 90
6
 70
0
 10
257.866868
 20
42.039798
 30
0.0
 10
259.643403
 20
45.776646
 30
0.0
 10
255.411125
 20
49.953450
 30
0.0
 10
251.178847
 20
45.776646
 30
0.0
 10
255.411125
 20
41.488900
 30
0.0
 10
257.866868
 20
42.039798
 30
0.0
  0
LWPOLYLINE
  5
171
100
AcDbEntity
  8
Layer_1
 62
7
100
AcDbPolyline
 90
6
 70
0
 10
321.084659
 20
42.039798
 30
0.0
 10
322.861191
 20
45.776646
 30
0.0
 10
318.628902
 20
49.953450
 30
0.0
 10
314.396613
 20
45.776646
 30
0.0
 10
318.628902
 20
41.488900
 30
0.0
 10
321.084659
 20
42.039798
 30
0.0
  0
LWPOLYLINE
  5
172
100
AcDbEntity
  8
Layer_1
 62
7
100
AcDbPolyline
 90
6
 70
0
 10
330.115770
 20
42.039798
 30
0.0
 10
331.892303
 20
45.776646
 30
0.0
 10
327.660013
 20
49.953450
 30
0.0
 10
323.427724
 20
45.776646
 30
0.0
 10
327.660013
 20
41.488900
 30
0.0
 10
330.115770
 20
42.039798
 30
0.0
  0
LWPOLYLINE
  5
173
100
AcDbEntity
  8
Layer_1
 62
7
100
AcDbPolyline
 90
6
 70
0
 10
348.177993
 20
42.039798
 30
0.0
 10
349.954525
 20
45.776646
 30
0.0
 10
345.722236
 20
49.953450
 30
0.0
 10
341.489947
 20
45.776646
 30
0.0
 10
345.722236
 20
41.488900
 30
0.0
 10
348.177993
 20
42.039798
 30
0.0
  0
LWPOLYLINE
  5
174
100
AcDbEntity
  8
Layer_1
 62
7
100
AcDbPolyline
 90
6
 70
0
 10
357.209104
 20
42.039798
 30
0.0
 10
358.985637
 20
45.776646
 30
0.0
 10
354.753347
 20
49.953450
 30
0.0
 10
350.521058
 20
45.776646
 30
0.0
 10
354.753347
 20
41.488900
 30
0.0
 10
357.209104
 20
42.039798
 30
0.0
  0
LWPOLYLINE
  5
175
100
AcDbEntity
  8
Layer_1
 62
7
100
AcDbPolyline
 90
6
 70
0
 10
366.240215
 20
42.039798
 30
0.0
 10
368.016748
 20
45.776646
 30
0.0
 10
363.784459
 20
49.953450
 30
0.0
 10
359.552169
 20
45.776646
 30
0.0
 10
363.784459
 20
41.488900
 30
0.0
 10
366.240215
 20
42.039798
 30
0.0
  0
LWPOLYLINE
  5
176
100
AcDbEntity
  8
Layer_1
 62
7
100
AcDbPolyline
 90
6
 70
0
 10
375.271326
 20
42.039798
 30
0.0
 10
377.047859
 20
45.776646
 30
0.0
 10
372.815570
 20
49.953450
 30
0.0
 10
368.583281
 20
45.776646
 30
0.0
 10
372.815570
 20
41.488900
 30
0.0
 10
375.271326
 20
42.039798
 30
0.0
  0
LWPOLYLINE
  5
177
100
AcDbEntity
  8
Layer_1
 62
7
100
AcDbPolyline
 90
6
 70
0
 10
384.302437
 20
42.039798
 30
0.0
 10
386.078970
 20
45.776646
 30
0.0
 10
381.846681
 20
49.953450
 30
0.0
 10
377.614392
 20
45.776646
 30
0.0
 10
381.846681
 20
41.488900
 30
0.0
 10
384.302437
 20
42.039798
 30
0.0
  0
LWPOLYLINE
  5
178
100
AcDbEntity
  8
Layer_1
 62
7
100
AcDbPolyline
 90
6
 70
0
 10
393.333549
 20
42.039798
 30
0.0
 10
395.110081
 20
45.776646
 30
0.0
 10
390.877792
 20
49.953450
 30
0.0
 10
386.645503
 20
45.776646
 30
0.0
 10
390.877792
 20
41.488900
 30
0.0
 10
393.333549
 20
42.039798
 30
0.0
  0
LWPOLYLINE
  5
179
100
AcDbEntity
  8
Layer_1
 62
7
100
AcDbPolyline
 90
6
 70
0
 10
402.364660
 20
42.039798
 30
0.0
 10
404.141192
 20
45.776646
 30
0.0
 10
399.908903
 20
49.953450
 30
0.0
 10
395.676614
 20
45.776646
 30
0.0
 10
399.908903
 20
41.488900
 30
0.0
 10
402.364660
 20
42.039798
 30
0.0
  0
LWPOLYLINE
  5
17a
100
AcDbEntity
  8
Layer_1
 62
7
100
AcDbPolyline
 90
6
 70
0
 10
411.395771
 20
42.039798
 30
0.0
 10
413.172303
 20
45.776646
 30
0.0
 10
408.940014
 20
49.953450
 30
0.0
 10
404.707725
 20
45.776646
 30
0.0
 10
408.940014
 20
41.488900
 30
0.0
 10
411.395771
 20
42.039798
 30
0.0
  0
LWPOLYLINE
  5
17b
100
AcDbEntity
  8
Layer_1
 62
7
100
AcDbPolyline
 90
6
 70
0
 10
420.426882
 20
42.039798
 30
0.0
 10
422.203414
 20
45.776646
 30
0.0
 10
417.971125
 20
49.953450
 30
0.0
 10
413.738836
 20
45.776646
 30
0.0
 10
417.971125
 20
41.488900
 30
0.0
 10
420.426882
 20
42.039798
 30
0.0
  0
LWPOLYLINE
  5
17c
100
AcDbEntity
  8
Layer_1
 62
7
100
AcDbPolyline
 90
6
 70
0
 10
447.520215
 20
42.039798
 30
0.0
 10
449.296748
 20
45.776646
 30
0.0
 10
445.064459
 20
49.953450
 30
0.0
 10
440.832169
 20
45.776646
 30
0.0
 10
445.064459
 20
41.488900
 30
0.0
 10
447.520215
 20
42.039798
 30
0.0
  0
LWPOLYLINE
  5
17d
100
AcDbEntity
  8
Layer_1
 62
7
100
AcDbPolyline
 90
6
 70
0
 10
456.551326
 20
42.039798
 30
0.0
 10
458.327859
 20
45.776646
 30
0.0
 10
454.095570
 20
49.953450
 30
0.0
 10
449.863281
 20
45.776646
 30
0.0
 10
454.095570
 20
41.488900
 30
0.0
 10
456.551326
 20
42.039798
 30
0.0
  0
LWPOLYLINE
  5
17e
100
AcDbEntity
  8
Layer_1
 62
7
100
AcDbPolyline
 90
6
 70
0
 10
474.613549
 20
42.039798
 30
0.0
 10
476.390084
 20
45.776646
 30
0.0
 10
472.157792
 20
49.953450
 30
0.0
 10
467.925503
 20
45.776646
 30
0.0
 10
472.157792
 20
41.488900
 30
0.0
 10
474.613549
 20
42.039798
 30
0.0
  0
LWPOLYLINE
  5
17f
100
AcDbEntity
  8
Layer_1
 62
7
100
AcDbPolyline
 90
6
 70
0
 10
483.644662
 20
42.039798
 30
0.0
 10
485.421195
 20
45.776646
 30
0.0
 10
481.188906
 20
49.953450
 30
0.0
 10
476.956617
 20
45.776646
 30
0.0
 10
481.188906
 20
41.488900
 30
0.0
 10
483.644662
 20
42.039798
 30
0.0
  0
LWPOLYLINE
  5
180
100
AcDbEntity
  8
Layer_1
 62
7
100
AcDbPolyline
 90
6
 70
0
 10
573.955774
 20
42.039798
 30
0.0
 10
575.732306
 20
45.776646
 30
0.0
 10
571.500017
 20
49.953450
 30
0.0
 10
567.267728
 20
45.776646
 30
0.0
 10
571.500017
 20
41.488900
 30
0.0
 10
573.955774
 20
42.039798
 30
0.0
  0
LWPOLYLINE
  5
181
100
AcDbEntity
  8
Layer_1
 62
7
100
AcDbPolyline
 90
6
 70
0
 10
582.986885
 20
42.039798
 30
0.0
 10
584.763428
 20
45.776646
 30
0.0
 10
580.531128
 20
49.953450
 30
0.0
 10
576.298839
 20
45.776646
 30
0.0
 10
580.531128
 20
41.488900
 30
0.0
 10
582.986885
 20
42.039798
 30
0.0
  0
LWPOLYLINE
  5
182
100
AcDbEntity
  8
Layer_1
 62
7
100
AcDbPolyline
 90
6
 70
0
 10
646.107928
 20
42.022300
 30
0.0
 10
647.978525
 20
45.720004
 30
0.0
 10
643.748917
 20
49.949612
 30
0.0
 10
639.519309
 20
45.720004
 30
0.0
 10
643.748917
 20
41.490396
 30
0.0
 10
646.107928
 20
42.022300
 30
0.0
  0
LWPOLYLINE
  5
183
100
AcDbEntity
  8
Layer_1
 62
7
100
AcDbPolyline
 90
6
 70
0
 10
655.139039
 20
42.022300
 30
0.0
 10
657.009636
 20
45.720004
 30
0.0
 10
652.780028
 20
49.949612
 30
0.0
 10
648.550420
 20
45.720004
 30
0.0
 10
652.780028
 20
41.490396
 30
0.0
 10
655.139039
 20
42.022300
 30
0.0
  0
LWPOLYLINE
  5
184
100
AcDbEntity
  8
Layer_1
 62
7
100
AcDbPolyline
 90
6
 70
0
 10
709.325706
 20
42.022300
 30
0.0
 10
711.196303
 20
45.720004
 30
0.0
 10
706.966695
 20
49.949612
 30
0.0
 10
702.737087
 20
45.720004
 30
0.0
 10
706.966695
 20
41.490396
 30
0.0
 10
709.325706
 20
42.022300
 30
0.0
  0
LWPOLYLINE
  5
185
100
AcDbEntity
  8
Layer_1
 62
7
100
AcDbPolyline
 90
6
 70
0
 10
718.356817
 20
42.022300
 30
0.0
 10
720.227414
 20
45.720004
 30
0.0
 10
715.997806
 20
49.949612
 30
0.0
 10
711.768198
 20
45.720004
 30
0.0
 10
715.997806
 20
41.490396
 30
0.0
 10
718.356817
 20
42.022300
 30
0.0
  0
LWPOLYLINE
  5
186
100
AcDbEntity
  8
Layer_1
 62
7
100
AcDbPolyline
 90
7
 70
0
 10
22.961247
 20
51.053411
 30
0.0
 10
24.831850
 20
54.751115
 30
0.0
 10
20.602236
 20
58.980723
 30
0.0
 10
16.904518
 20
57.110126
 30
0.0
 10
16.904518
 20
52.392104
 30
0.0
 10
20.602236
 20
50.521507
 30
0.0
 10
22.961247
 20
51.053411
 30
0.0
  0
LWPOLYLINE
  5
187
100
AcDbEntity
  8
Layer_1
 62
7
100
AcDbPolyline
 90
7
 70
0
 10
31.992358
 20
51.053411
 30
0.0
 10
33.862961
 20
54.751115
 30
0.0
 10
29.633347
 20
58.980723
 30
0.0
 10
27.274337
 20
58.448819
 30
0.0
 10
25.403734
 20
54.751115
 30
0.0
 10
29.633347
 20
50.521507
 30
0.0
 10
31.992358
 20
51.053411
 30
0.0
  0
LWPOLYLINE
  5
188
100
AcDbEntity
  8
Layer_1
 62
7
100
AcDbPolyline
 90
6
 70
0
 10
95.210136
 20
51.053411
 30
0.0
 10
97.080739
 20
54.751115
 30
0.0
 10
92.851125
 20
58.980723
 30
0.0
 10
88.621512
 20
54.751115
 30
0.0
 10
92.851125
 20
50.521507
 30
0.0
 10
95.210136
 20
51.053411
 30
0.0
  0
LWPOLYLINE
  5
189
100
AcDbEntity
  8
Layer_1
 62
7
100
AcDbPolyline
 90
6
 70
0
 10
104.241247
 20
51.053411
 30
0.0
 10
106.111850
 20
54.751115
 30
0.0
 10
101.882236
 20
58.980723
 30
0.0
 10
97.652623
 20
54.751115
 30
0.0
 10
101.882236
 20
50.521507
 30
0.0
 10
104.241247
 20
51.053411
 30
0.0
  0
LWPOLYLINE
  5
18a
100
AcDbEntity
  8
Layer_1
 62
7
100
AcDbPolyline
 90
6
 70
0
 10
122.303469
 20
51.053411
 30
0.0
 10
124.174072
 20
54.751115
 30
0.0
 10
119.944459
 20
58.980723
 30
0.0
 10
115.714845
 20
54.751115
 30
0.0
 10
119.944459
 20
50.521507
 30
0.0
 10
122.303469
 20
51.053411
 30
0.0
  0
LWPOLYLINE
  5
18b
100
AcDbEntity
  8
Layer_1
 62
7
100
AcDbPolyline
 90
6
 70
0
 10
131.334581
 20
51.053411
 30
0.0
 10
133.205183
 20
54.751115
 30
0.0
 10
128.975570
 20
58.980723
 30
0.0
 10
124.745956
 20
54.751115
 30
0.0
 10
128.975570
 20
50.521507
 30
0.0
 10
131.334581
 20
51.053411
 30
0.0
  0
LWPOLYLINE
  5
18c
100
AcDbEntity
  8
Layer_1
 62
7
100
AcDbPolyline
 90
6
 70
0
 10
158.427914
 20
51.053411
 30
0.0
 10
160.298517
 20
54.751115
 30
0.0
 10
156.068903
 20
58.980723
 30
0.0
 10
151.839289
 20
54.751115
 30
0.0
 10
156.068903
 20
50.521507
 30
0.0
 10
158.427914
 20
51.053411
 30
0.0
  0
LWPOLYLINE
  5
18d
100
AcDbEntity
  8
Layer_1
 62
7
100
AcDbPolyline
 90
6
 70
0
 10
167.555754
 20
51.070909
 30
0.0
 10
169.332289
 20
54.807757
 30
0.0
 10
165.100014
 20
58.984561
 30
0.0
 10
160.867736
 20
54.807757
 30
0.0
 10
165.100014
 20
50.520011
 30
0.0
 10
167.555754
 20
51.070909
 30
0.0
  0
LWPOLYLINE
  5
18e
100
AcDbEntity
  8
Layer_1
 62
7
100
AcDbPolyline
 90
6
 70
0
 10
176.586865
 20
51.070909
 30
0.0
 10
178.363400
 20
54.807757
 30
0.0
 10
174.131122
 20
58.984561
 30
0.0
 10
169.898845
 20
54.807757
 30
0.0
 10
174.131122
 20
50.520011
 30
0.0
 10
176.586865
 20
51.070909
 30
0.0
  0
LWPOLYLINE
  5
18f
100
AcDbEntity
  8
Layer_1
 62
7
100
AcDbPolyline
 90
6
 70
0
 10
185.617976
 20
51.070909
 30
0.0
 10
187.394511
 20
54.807757
 30
0.0
 10
183.162234
 20
58.984561
 30
0.0
 10
178.929956
 20
54.807757
 30
0.0
 10
183.162234
 20
50.520011
 30
0.0
 10
185.617976
 20
51.070909
 30
0.0
  0
LWPOLYLINE
  5
190
100
AcDbEntity
  8
Layer_1
 62
7
100
AcDbPolyline
 90
6
 70
0
 10
194.649087
 20
51.070909
 30
0.0
 10
196.425622
 20
54.807757
 30
0.0
 10
192.193345
 20
58.984561
 30
0.0
 10
187.961067
 20
54.807757
 30
0.0
 10
192.193345
 20
50.520011
 30
0.0
 10
194.649087
 20
51.070909
 30
0.0
  0
LWPOLYLINE
  5
191
100
AcDbEntity
  8
Layer_1
 62
7
100
AcDbPolyline
 90
6
 70
0
 10
203.680198
 20
51.070909
 30
0.0
 10
205.456734
 20
54.807757
 30
0.0
 10
201.224456
 20
58.984561
 30
0.0
 10
196.992178
 20
54.807757
 30
0.0
 10
201.224456
 20
50.520011
 30
0.0
 10
203.680198
 20
51.070909
 30
0.0
  0
LWPOLYLINE
  5
192
100
AcDbEntity
  8
Layer_1
 62
7
100
AcDbPolyline
 90
6
 70
0
 10
212.711309
 20
51.070909
 30
0.0
 10
214.487845
 20
54.807757
 30
0.0
 10
210.255567
 20
58.984561
 30
0.0
 10
206.023289
 20
54.807757
 30
0.0
 10
210.255567
 20
50.520011
 30
0.0
 10
212.711309
 20
51.070909
 30
0.0
  0
LWPOLYLINE
  5
193
100
AcDbEntity
  8
Layer_1
 62
7
100
AcDbPolyline
 90
6
 70
0
 10
221.742421
 20
51.070909
 30
0.0
 10
223.518959
 20
54.807757
 30
0.0
 10
219.286678
 20
58.984561
 30
0.0
 10
215.054400
 20
54.807757
 30
0.0
 10
219.286678
 20
50.520011
 30
0.0
 10
221.742421
 20
51.070909
 30
0.0
  0
LWPOLYLINE
  5
194
100
AcDbEntity
  8
Layer_1
 62
7
100
AcDbPolyline
 90
6
 70
0
 10
230.773534
 20
51.070909
 30
0.0
 10
232.550070
 20
54.807757
 30
0.0
 10
228.317792
 20
58.984561
 30
0.0
 10
224.085514
 20
54.807757
 30
0.0
 10
228.317792
 20
50.520011
 30
0.0
 10
230.773534
 20
51.070909
 30
0.0
  0
LWPOLYLINE
  5
195
100
AcDbEntity
  8
Layer_1
 62
7
100
AcDbPolyline
 90
6
 70
0
 10
248.835757
 20
51.070909
 30
0.0
 10
250.612292
 20
54.807757
 30
0.0
 10
246.380014
 20
58.984561
 30
0.0
 10
242.147736
 20
54.807757
 30
0.0
 10
246.380014
 20
50.520011
 30
0.0
 10
248.835757
 20
51.070909
 30
0.0
  0
LWPOLYLINE
  5
196
100
AcDbEntity
  8
Layer_1
 62
7
100
AcDbPolyline
 90
6
 70
0
 10
257.866868
 20
51.070909
 30
0.0
 10
259.643403
 20
54.807757
 30
0.0
 10
255.411125
 20
58.984561
 30
0.0
 10
251.178847
 20
54.807757
 30
0.0
 10
255.411125
 20
50.520011
 30
0.0
 10
257.866868
 20
51.070909
 30
0.0
  0
LWPOLYLINE
  5
197
100
AcDbEntity
  8
Layer_1
 62
7
100
AcDbPolyline
 90
6
 70
0
 10
321.084659
 20
51.070909
 30
0.0
 10
322.861191
 20
54.807757
 30
0.0
 10
318.628902
 20
58.984561
 30
0.0
 10
314.396613
 20
54.807757
 30
0.0
 10
318.628902
 20
50.520011
 30
0.0
 10
321.084659
 20
51.070909
 30
0.0
  0
LWPOLYLINE
  5
198
100
AcDbEntity
  8
Layer_1
 62
7
100
AcDbPolyline
 90
6
 70
0
 10
330.115770
 20
51.070909
 30
0.0
 10
331.892303
 20
54.807757
 30
0.0
 10
327.660013
 20
58.984561
 30
0.0
 10
323.427724
 20
54.807757
 30
0.0
 10
327.660013
 20
50.520011
 30
0.0
 10
330.115770
 20
51.070909
 30
0.0
  0
LWPOLYLINE
  5
199
100
AcDbEntity
  8
Layer_1
 62
7
100
AcDbPolyline
 90
6
 70
0
 10
348.177993
 20
51.070909
 30
0.0
 10
349.954525
 20
54.807757
 30
0.0
 10
345.722236
 20
58.984561
 30
0.0
 10
341.489947
 20
54.807757
 30
0.0
 10
345.722236
 20
50.520011
 30
0.0
 10
348.177993
 20
51.070909
 30
0.0
  0
LWPOLYLINE
  5
19a
100
AcDbEntity
  8
Layer_1
 62
7
100
AcDbPolyline
 90
6
 70
0
 10
357.209104
 20
51.070909
 30
0.0
 10
358.985637
 20
54.807757
 30
0.0
 10
354.753347
 20
58.984561
 30
0.0
 10
350.521058
 20
54.807757
 30
0.0
 10
354.753347
 20
50.520011
 30
0.0
 10
357.209104
 20
51.070909
 30
0.0
  0
LWPOLYLINE
  5
19b
100
AcDbEntity
  8
Layer_1
 62
7
100
AcDbPolyline
 90
6
 70
0
 10
366.240215
 20
51.070909
 30
0.0
 10
368.016748
 20
54.807757
 30
0.0
 10
363.784459
 20
58.984561
 30
0.0
 10
359.552169
 20
54.807757
 30
0.0
 10
363.784459
 20
50.520011
 30
0.0
 10
366.240215
 20
51.070909
 30
0.0
  0
LWPOLYLINE
  5
19c
100
AcDbEntity
  8
Layer_1
 62
7
100
AcDbPolyline
 90
6
 70
0
 10
375.271326
 20
51.070909
 30
0.0
 10
377.047859
 20
54.807757
 30
0.0
 10
372.815570
 20
58.984561
 30
0.0
 10
368.583281
 20
54.807757
 30
0.0
 10
372.815570
 20
50.520011
 30
0.0
 10
375.271326
 20
51.070909
 30
0.0
  0
LWPOLYLINE
  5
19d
100
AcDbEntity
  8
Layer_1
 62
7
100
AcDbPolyline
 90
6
 70
0
 10
384.302437
 20
51.070909
 30
0.0
 10
386.078970
 20
54.807757
 30
0.0
 10
381.846681
 20
58.984561
 30
0.0
 10
377.614392
 20
54.807757
 30
0.0
 10
381.846681
 20
50.520011
 30
0.0
 10
384.302437
 20
51.070909
 30
0.0
  0
LWPOLYLINE
  5
19e
100
AcDbEntity
  8
Layer_1
 62
7
100
AcDbPolyline
 90
6
 70
0
 10
393.333549
 20
51.070909
 30
0.0
 10
395.110081
 20
54.807757
 30
0.0
 10
390.877792
 20
58.984561
 30
0.0
 10
386.645503
 20
54.807757
 30
0.0
 10
390.877792
 20
50.520011
 30
0.0
 10
393.333549
 20
51.070909
 30
0.0
  0
LWPOLYLINE
  5
19f
100
AcDbEntity
  8
Layer_1
 62
7
100
AcDbPolyline
 90
6
 70
0
 10
402.364660
 20
51.070909
 30
0.0
 10
404.141192
 20
54.807757
 30
0.0
 10
399.908903
 20
58.984561
 30
0.0
 10
395.676614
 20
54.807757
 30
0.0
 10
399.908903
 20
50.520011
 30
0.0
 10
402.364660
 20
51.070909
 30
0.0
  0
LWPOLYLINE
  5
1a0
100
AcDbEntity
  8
Layer_1
 62
7
100
AcDbPolyline
 90
6
 70
0
 10
411.395771
 20
51.070909
 30
0.0
 10
413.172303
 20
54.807757
 30
0.0
 10
408.940014
 20
58.984561
 30
0.0
 10
404.707725
 20
54.807757
 30
0.0
 10
408.940014
 20
50.520011
 30
0.0
 10
411.395771
 20
51.070909
 30
0.0
  0
LWPOLYLINE
  5
1a1
100
AcDbEntity
  8
Layer_1
 62
7
100
AcDbPolyline
 90
6
 70
0
 10
420.426882
 20
51.070909
 30
0.0
 10
422.203414
 20
54.807757
 30
0.0
 10
417.971125
 20
58.984561
 30
0.0
 10
413.738836
 20
54.807757
 30
0.0
 10
417.971125
 20
50.520011
 30
0.0
 10
420.426882
 20
51.070909
 30
0.0
  0
LWPOLYLINE
  5
1a2
100
AcDbEntity
  8
Layer_1
 62
7
100
AcDbPolyline
 90
6
 70
0
 10
447.520215
 20
51.070909
 30
0.0
 10
449.296748
 20
54.807757
 30
0.0
 10
445.064459
 20
58.984561
 30
0.0
 10
440.832169
 20
54.807757
 30
0.0
 10
445.064459
 20
50.520011
 30
0.0
 10
447.520215
 20
51.070909
 30
0.0
  0
LWPOLYLINE
  5
1a3
100
AcDbEntity
  8
Layer_1
 62
7
100
AcDbPolyline
 90
6
 70
0
 10
456.551326
 20
51.070909
 30
0.0
 10
458.327859
 20
54.807757
 30
0.0
 10
454.095570
 20
58.984561
 30
0.0
 10
449.863281
 20
54.807757
 30
0.0
 10
454.095570
 20
50.520011
 30
0.0
 10
456.551326
 20
51.070909
 30
0.0
  0
LWPOLYLINE
  5
1a4
100
AcDbEntity
  8
Layer_1
 62
7
100
AcDbPolyline
 90
6
 70
0
 10
474.613549
 20
51.070909
 30
0.0
 10
476.390084
 20
54.807757
 30
0.0
 10
472.157792
 20
58.984561
 30
0.0
 10
467.925503
 20
54.807757
 30
0.0
 10
472.157792
 20
50.520011
 30
0.0
 10
474.613549
 20
51.070909
 30
0.0
  0
LWPOLYLINE
  5
1a5
100
AcDbEntity
  8
Layer_1
 62
7
100
AcDbPolyline
 90
6
 70
0
 10
483.644662
 20
51.070909
 30
0.0
 10
485.421195
 20
54.807757
 30
0.0
 10
481.188906
 20
58.984561
 30
0.0
 10
476.956617
 20
54.807757
 30
0.0
 10
481.188906
 20
50.520011
 30
0.0
 10
483.644662
 20
51.070909
 30
0.0
  0
LWPOLYLINE
  5
1a6
100
AcDbEntity
  8
Layer_1
 62
7
100
AcDbPolyline
 90
6
 70
0
 10
492.675774
 20
51.070909
 30
0.0
 10
494.452306
 20
54.807757
 30
0.0
 10
490.220017
 20
58.984561
 30
0.0
 10
485.987728
 20
54.807757
 30
0.0
 10
490.220017
 20
50.520011
 30
0.0
 10
492.675774
 20
51.070909
 30
0.0
  0
LWPOLYLINE
  5
1a7
100
AcDbEntity
  8
Layer_1
 62
7
100
AcDbPolyline
 90
6
 70
0
 10
501.706885
 20
51.070909
 30
0.0
 10
503.483417
 20
54.807757
 30
0.0
 10
499.251128
 20
58.984561
 30
0.0
 10
495.018839
 20
54.807757
 30
0.0
 10
499.251128
 20
50.520011
 30
0.0
 10
501.706885
 20
51.070909
 30
0.0
  0
LWPOLYLINE
  5
1a8
100
AcDbEntity
  8
Layer_1
 62
7
100
AcDbPolyline
 90
6
 70
0
 10
510.737996
 20
51.070909
 30
0.0
 10
512.514528
 20
54.807757
 30
0.0
 10
508.282239
 20
58.984561
 30
0.0
 10
504.049950
 20
54.807757
 30
0.0
 10
508.282239
 20
50.520011
 30
0.0
 10
510.737996
 20
51.070909
 30
0.0
  0
LWPOLYLINE
  5
1a9
100
AcDbEntity
  8
Layer_1
 62
7
100
AcDbPolyline
 90
6
 70
0
 10
519.769107
 20
51.070909
 30
0.0
 10
521.545639
 20
54.807757
 30
0.0
 10
517.313350
 20
58.984561
 30
0.0
 10
513.081061
 20
54.807757
 30
0.0
 10
517.313350
 20
50.520011
 30
0.0
 10
519.769107
 20
51.070909
 30
0.0
  0
LWPOLYLINE
  5
1aa
100
AcDbEntity
  8
Layer_1
 62
7
100
AcDbPolyline
 90
6
 70
0
 10
528.800218
 20
51.070909
 30
0.0
 10
530.576750
 20
54.807757
 30
0.0
 10
526.344461
 20
58.984561
 30
0.0
 10
522.112172
 20
54.807757
 30
0.0
 10
526.344461
 20
50.520011
 30
0.0
 10
528.800218
 20
51.070909
 30
0.0
  0
LWPOLYLINE
  5
1ab
100
AcDbEntity
  8
Layer_1
 62
7
100
AcDbPolyline
 90
6
 70
0
 10
537.831329
 20
51.070909
 30
0.0
 10
539.607862
 20
54.807757
 30
0.0
 10
535.375572
 20
58.984561
 30
0.0
 10
531.143283
 20
54.807757
 30
0.0
 10
535.375572
 20
50.520011
 30
0.0
 10
537.831329
 20
51.070909
 30
0.0
  0
LWPOLYLINE
  5
1ac
100
AcDbEntity
  8
Layer_1
 62
7
100
AcDbPolyline
 90
6
 70
0
 10
546.862440
 20
51.070909
 30
0.0
 10
548.638973
 20
54.807757
 30
0.0
 10
544.406684
 20
58.984561
 30
0.0
 10
540.174394
 20
54.807757
 30
0.0
 10
544.406684
 20
50.520011
 30
0.0
 10
546.862440
 20
51.070909
 30
0.0
  0
LWPOLYLINE
  5
1ad
100
AcDbEntity
  8
Layer_1
 62
7
100
AcDbPolyline
 90
6
 70
0
 10
555.893551
 20
51.070909
 30
0.0
 10
557.670084
 20
54.807757
 30
0.0
 10
553.437795
 20
58.984561
 30
0.0
 10
549.205506
 20
54.807757
 30
0.0
 10
553.437795
 20
50.520011
 30
0.0
 10
555.893551
 20
51.070909
 30
0.0
  0
LWPOLYLINE
  5
1ae
100
AcDbEntity
  8
Layer_1
 62
7
100
AcDbPolyline
 90
6
 70
0
 10
573.955774
 20
51.070909
 30
0.0
 10
575.732306
 20
54.807757
 30
0.0
 10
571.500017
 20
58.984561
 30
0.0
 10
567.267728
 20
54.807757
 30
0.0
 10
571.500017
 20
50.520011
 30
0.0
 10
573.955774
 20
51.070909
 30
0.0
  0
LWPOLYLINE
  5
1af
100
AcDbEntity
  8
Layer_1
 62
7
100
AcDbPolyline
 90
6
 70
0
 10
582.986885
 20
51.070909
 30
0.0
 10
584.763428
 20
54.807757
 30
0.0
 10
580.531128
 20
58.984561
 30
0.0
 10
576.298839
 20
54.807757
 30
0.0
 10
580.531128
 20
50.520011
 30
0.0
 10
582.986885
 20
51.070909
 30
0.0
  0
LWPOLYLINE
  5
1b0
100
AcDbEntity
  8
Layer_1
 62
7
100
AcDbPolyline
 90
6
 70
0
 10
646.107928
 20
51.053411
 30
0.0
 10
647.978525
 20
54.751115
 30
0.0
 10
643.748917
 20
58.980723
 30
0.0
 10
639.519309
 20
54.751115
 30
0.0
 10
643.748917
 20
50.521507
 30
0.0
 10
646.107928
 20
51.053411
 30
0.0
  0
LWPOLYLINE
  5
1b1
100
AcDbEntity
  8
Layer_1
 62
7
100
AcDbPolyline
 90
6
 70
0
 10
655.139039
 20
51.053411
 30
0.0
 10
657.009636
 20
54.751115
 30
0.0
 10
652.780028
 20
58.980723
 30
0.0
 10
648.550420
 20
54.751115
 30
0.0
 10
652.780028
 20
50.521507
 30
0.0
 10
655.139039
 20
51.053411
 30
0.0
  0
LWPOLYLINE
  5
1b2
100
AcDbEntity
  8
Layer_1
 62
7
100
AcDbPolyline
 90
6
 70
0
 10
709.325706
 20
51.053411
 30
0.0
 10
711.196303
 20
54.751115
 30
0.0
 10
706.966695
 20
58.980723
 30
0.0
 10
702.737087
 20
54.751115
 30
0.0
 10
706.966695
 20
50.521507
 30
0.0
 10
709.325706
 20
51.053411
 30
0.0
  0
LWPOLYLINE
  5
1b3
100
AcDbEntity
  8
Layer_1
 62
7
100
AcDbPolyline
 90
6
 70
0
 10
718.356817
 20
51.053411
 30
0.0
 10
720.227414
 20
54.751115
 30
0.0
 10
715.997806
 20
58.980723
 30
0.0
 10
711.768198
 20
54.751115
 30
0.0
 10
715.997806
 20
50.521507
 30
0.0
 10
718.356817
 20
51.053411
 30
0.0
  0
LWPOLYLINE
  5
1b4
100
AcDbEntity
  8
Layer_1
 62
7
100
AcDbPolyline
 90
7
 70
0
 10
22.961247
 20
60.084522
 30
0.0
 10
24.831850
 20
63.782226
 30
0.0
 10
20.602236
 20
68.011834
 30
0.0
 10
16.904518
 20
66.141237
 30
0.0
 10
16.904518
 20
61.423215
 30
0.0
 10
20.602236
 20
59.552618
 30
0.0
 10
22.961247
 20
60.084522
 30
0.0
  0
LWPOLYLINE
  5
1b5
100
AcDbEntity
  8
Layer_1
 62
7
100
AcDbPolyline
 90
6
 70
0
 10
32.089090
 20
60.102020
 30
0.0
 10
33.865625
 20
63.838868
 30
0.0
 10
29.633347
 20
68.015672
 30
0.0
 10
25.401070
 20
63.838868
 30
0.0
 10
29.633347
 20
59.551122
 30
0.0
 10
32.089090
 20
60.102020
 30
0.0
  0
LWPOLYLINE
  5
1b6
100
AcDbEntity
  8
Layer_1
 62
7
100
AcDbPolyline
 90
6
 70
0
 10
95.306868
 20
60.102020
 30
0.0
 10
97.083403
 20
63.838868
 30
0.0
 10
92.851125
 20
68.015672
 30
0.0
 10
88.618847
 20
63.838868
 30
0.0
 10
92.851125
 20
59.551122
 30
0.0
 10
95.306868
 20
60.102020
 30
0.0
  0
LWPOLYLINE
  5
1b7
100
AcDbEntity
  8
Layer_1
 62
7
100
AcDbPolyline
 90
6
 70
0
 10
104.337979
 20
60.102020
 30
0.0
 10
106.114514
 20
63.838868
 30
0.0
 10
101.882236
 20
68.015672
 30
0.0
 10
97.649959
 20
63.838868
 30
0.0
 10
101.882236
 20
59.551122
 30
0.0
 10
104.337979
 20
60.102020
 30
0.0
  0
LWPOLYLINE
  5
1b8
100
AcDbEntity
  8
Layer_1
 62
7
100
AcDbPolyline
 90
6
 70
0
 10
122.400201
 20
60.102020
 30
0.0
 10
124.176736
 20
63.838868
 30
0.0
 10
119.944459
 20
68.015672
 30
0.0
 10
115.712181
 20
63.838868
 30
0.0
 10
119.944459
 20
59.551122
 30
0.0
 10
122.400201
 20
60.102020
 30
0.0
  0
LWPOLYLINE
  5
1b9
100
AcDbEntity
  8
Layer_1
 62
7
100
AcDbPolyline
 90
6
 70
0
 10
131.431312
 20
60.102020
 30
0.0
 10
133.207847
 20
63.838868
 30
0.0
 10
128.975570
 20
68.015672
 30
0.0
 10
124.743292
 20
63.838868
 30
0.0
 10
128.975570
 20
59.551122
 30
0.0
 10
131.431312
 20
60.102020
 30
0.0
  0
LWPOLYLINE
  5
1ba
100
AcDbEntity
  8
Layer_1
 62
7
100
AcDbPolyline
 90
6
 70
0
 10
149.493534
 20
60.102020
 30
0.0
 10
151.270070
 20
63.838868
 30
0.0
 10
147.037792
 20
68.015672
 30
0.0
 10
142.805514
 20
63.838868
 30
0.0
 10
147.037792
 20
59.551122
 30
0.0
 10
149.493534
 20
60.102020
 30
0.0
  0
LWPOLYLINE
  5
1bb
100
AcDbEntity
  8
Layer_1
 62
7
100
AcDbPolyline
 90
6
 70
0
 10
158.524646
 20
60.102020
 30
0.0
 10
160.301181
 20
63.838868
 30
0.0
 10
156.068903
 20
68.015672
 30
0.0
 10
151.836625
 20
63.838868
 30
0.0
 10
156.068903
 20
59.551122
 30
0.0
 10
158.524646
 20
60.102020
 30
0.0
  0
LWPOLYLINE
  5
1bc
100
AcDbEntity
  8
Layer_1
 62
7
100
AcDbPolyline
 90
6
 70
0
 10
167.555754
 20
60.102020
 30
0.0
 10
169.332289
 20
63.838868
 30
0.0
 10
165.100014
 20
68.015672
 30
0.0
 10
160.867736
 20
63.838868
 30
0.0
 10
165.100014
 20
59.551122
 30
0.0
 10
167.555754
 20
60.102020
 30
0.0
  0
LWPOLYLINE
  5
1bd
100
AcDbEntity
  8
Layer_1
 62
7
100
AcDbPolyline
 90
6
 70
0
 10
176.586865
 20
60.102020
 30
0.0
 10
178.363400
 20
63.838868
 30
0.0
 10
174.131122
 20
68.015672
 30
0.0
 10
169.898845
 20
63.838868
 30
0.0
 10
174.131122
 20
59.551122
 30
0.0
 10
176.586865
 20
60.102020
 30
0.0
  0
LWPOLYLINE
  5
1be
100
AcDbEntity
  8
Layer_1
 62
7
100
AcDbPolyline
 90
6
 70
0
 10
185.617976
 20
60.102020
 30
0.0
 10
187.394511
 20
63.838868
 30
0.0
 10
183.162234
 20
68.015672
 30
0.0
 10
178.929956
 20
63.838868
 30
0.0
 10
183.162234
 20
59.551122
 30
0.0
 10
185.617976
 20
60.102020
 30
0.0
  0
LWPOLYLINE
  5
1bf
100
AcDbEntity
  8
Layer_1
 62
7
100
AcDbPolyline
 90
6
 70
0
 10
194.649087
 20
60.102020
 30
0.0
 10
196.425622
 20
63.838868
 30
0.0
 10
192.193345
 20
68.015672
 30
0.0
 10
187.961067
 20
63.838868
 30
0.0
 10
192.193345
 20
59.551122
 30
0.0
 10
194.649087
 20
60.102020
 30
0.0
  0
LWPOLYLINE
  5
1c0
100
AcDbEntity
  8
Layer_1
 62
7
100
AcDbPolyline
 90
6
 70
0
 10
203.680198
 20
60.102020
 30
0.0
 10
205.456734
 20
63.838868
 30
0.0
 10
201.224456
 20
68.015672
 30
0.0
 10
196.992178
 20
63.838868
 30
0.0
 10
201.224456
 20
59.551122
 30
0.0
 10
203.680198
 20
60.102020
 30
0.0
  0
LWPOLYLINE
  5
1c1
100
AcDbEntity
  8
Layer_1
 62
7
100
AcDbPolyline
 90
6
 70
0
 10
212.711309
 20
60.102020
 30
0.0
 10
214.487845
 20
63.838868
 30
0.0
 10
210.255567
 20
68.015672
 30
0.0
 10
206.023289
 20
63.838868
 30
0.0
 10
210.255567
 20
59.551122
 30
0.0
 10
212.711309
 20
60.102020
 30
0.0
  0
LWPOLYLINE
  5
1c2
100
AcDbEntity
  8
Layer_1
 62
7
100
AcDbPolyline
 90
6
 70
0
 10
221.742421
 20
60.102020
 30
0.0
 10
223.518959
 20
63.838868
 30
0.0
 10
219.286678
 20
68.015672
 30
0.0
 10
215.054400
 20
63.838868
 30
0.0
 10
219.286678
 20
59.551122
 30
0.0
 10
221.742421
 20
60.102020
 30
0.0
  0
LWPOLYLINE
  5
1c3
100
AcDbEntity
  8
Layer_1
 62
7
100
AcDbPolyline
 90
6
 70
0
 10
248.835757
 20
60.102020
 30
0.0
 10
250.612292
 20
63.838868
 30
0.0
 10
246.380014
 20
68.015672
 30
0.0
 10
242.147736
 20
63.838868
 30
0.0
 10
246.380014
 20
59.551122
 30
0.0
 10
248.835757
 20
60.102020
 30
0.0
  0
LWPOLYLINE
  5
1c4
100
AcDbEntity
  8
Layer_1
 62
7
100
AcDbPolyline
 90
6
 70
0
 10
257.866868
 20
60.102020
 30
0.0
 10
259.643403
 20
63.838868
 30
0.0
 10
255.411125
 20
68.015672
 30
0.0
 10
251.178847
 20
63.838868
 30
0.0
 10
255.411125
 20
59.551122
 30
0.0
 10
257.866868
 20
60.102020
 30
0.0
  0
LWPOLYLINE
  5
1c5
100
AcDbEntity
  8
Layer_1
 62
7
100
AcDbPolyline
 90
6
 70
0
 10
321.084659
 20
60.102020
 30
0.0
 10
322.861191
 20
63.838868
 30
0.0
 10
318.628902
 20
68.015672
 30
0.0
 10
314.396613
 20
63.838868
 30
0.0
 10
318.628902
 20
59.551122
 30
0.0
 10
321.084659
 20
60.102020
 30
0.0
  0
LWPOLYLINE
  5
1c6
100
AcDbEntity
  8
Layer_1
 62
7
100
AcDbPolyline
 90
6
 70
0
 10
330.115770
 20
60.102020
 30
0.0
 10
331.892303
 20
63.838868
 30
0.0
 10
327.660013
 20
68.015672
 30
0.0
 10
323.427724
 20
63.838868
 30
0.0
 10
327.660013
 20
59.551122
 30
0.0
 10
330.115770
 20
60.102020
 30
0.0
  0
LWPOLYLINE
  5
1c7
100
AcDbEntity
  8
Layer_1
 62
7
100
AcDbPolyline
 90
6
 70
0
 10
348.177993
 20
60.102020
 30
0.0
 10
349.954525
 20
63.838868
 30
0.0
 10
345.722236
 20
68.015672
 30
0.0
 10
341.489947
 20
63.838868
 30
0.0
 10
345.722236
 20
59.551122
 30
0.0
 10
348.177993
 20
60.102020
 30
0.0
  0
LWPOLYLINE
  5
1c8
100
AcDbEntity
  8
Layer_1
 62
7
100
AcDbPolyline
 90
6
 70
0
 10
357.209104
 20
60.102020
 30
0.0
 10
358.985637
 20
63.838868
 30
0.0
 10
354.753347
 20
68.015672
 30
0.0
 10
350.521058
 20
63.838868
 30
0.0
 10
354.753347
 20
59.551122
 30
0.0
 10
357.209104
 20
60.102020
 30
0.0
  0
LWPOLYLINE
  5
1c9
100
AcDbEntity
  8
Layer_1
 62
7
100
AcDbPolyline
 90
6
 70
0
 10
420.426882
 20
60.102020
 30
0.0
 10
422.203414
 20
63.838868
 30
0.0
 10
417.971125
 20
68.015672
 30
0.0
 10
413.738836
 20
63.838868
 30
0.0
 10
417.971125
 20
59.551122
 30
0.0
 10
420.426882
 20
60.102020
 30
0.0
  0
LWPOLYLINE
  5
1ca
100
AcDbEntity
  8
Layer_1
 62
7
100
AcDbPolyline
 90
6
 70
0
 10
429.457993
 20
60.102020
 30
0.0
 10
431.234525
 20
63.838868
 30
0.0
 10
427.002236
 20
68.015672
 30
0.0
 10
422.769947
 20
63.838868
 30
0.0
 10
427.002236
 20
59.551122
 30
0.0
 10
429.457993
 20
60.102020
 30
0.0
  0
LWPOLYLINE
  5
1cb
100
AcDbEntity
  8
Layer_1
 62
7
100
AcDbPolyline
 90
6
 70
0
 10
447.520215
 20
60.102020
 30
0.0
 10
449.296748
 20
63.838868
 30
0.0
 10
445.064459
 20
68.015672
 30
0.0
 10
440.832169
 20
63.838868
 30
0.0
 10
445.064459
 20
59.551122
 30
0.0
 10
447.520215
 20
60.102020
 30
0.0
  0
LWPOLYLINE
  5
1cc
100
AcDbEntity
  8
Layer_1
 62
7
100
AcDbPolyline
 90
6
 70
0
 10
456.551326
 20
60.102020
 30
0.0
 10
458.327859
 20
63.838868
 30
0.0
 10
454.095570
 20
68.015672
 30
0.0
 10
449.863281
 20
63.838868
 30
0.0
 10
454.095570
 20
59.551122
 30
0.0
 10
456.551326
 20
60.102020
 30
0.0
  0
LWPOLYLINE
  5
1cd
100
AcDbEntity
  8
Layer_1
 62
7
100
AcDbPolyline
 90
6
 70
0
 10
474.613549
 20
60.102020
 30
0.0
 10
476.390084
 20
63.838868
 30
0.0
 10
472.157792
 20
68.015672
 30
0.0
 10
467.925503
 20
63.838868
 30
0.0
 10
472.157792
 20
59.551122
 30
0.0
 10
474.613549
 20
60.102020
 30
0.0
  0
LWPOLYLINE
  5
1ce
100
AcDbEntity
  8
Layer_1
 62
7
100
AcDbPolyline
 90
6
 70
0
 10
483.644662
 20
60.102020
 30
0.0
 10
485.421195
 20
63.838868
 30
0.0
 10
481.188906
 20
68.015672
 30
0.0
 10
476.956617
 20
63.838868
 30
0.0
 10
481.188906
 20
59.551122
 30
0.0
 10
483.644662
 20
60.102020
 30
0.0
  0
LWPOLYLINE
  5
1cf
100
AcDbEntity
  8
Layer_1
 62
7
100
AcDbPolyline
 90
6
 70
0
 10
492.675774
 20
60.102020
 30
0.0
 10
494.452306
 20
63.838868
 30
0.0
 10
490.220017
 20
68.015672
 30
0.0
 10
485.987728
 20
63.838868
 30
0.0
 10
490.220017
 20
59.551122
 30
0.0
 10
492.675774
 20
60.102020
 30
0.0
  0
LWPOLYLINE
  5
1d0
100
AcDbEntity
  8
Layer_1
 62
7
100
AcDbPolyline
 90
6
 70
0
 10
501.706885
 20
60.102020
 30
0.0
 10
503.483417
 20
63.838868
 30
0.0
 10
499.251128
 20
68.015672
 30
0.0
 10
495.018839
 20
63.838868
 30
0.0
 10
499.251128
 20
59.551122
 30
0.0
 10
501.706885
 20
60.102020
 30
0.0
  0
LWPOLYLINE
  5
1d1
100
AcDbEntity
  8
Layer_1
 62
7
100
AcDbPolyline
 90
6
 70
0
 10
510.737996
 20
60.102020
 30
0.0
 10
512.514528
 20
63.838868
 30
0.0
 10
508.282239
 20
68.015672
 30
0.0
 10
504.049950
 20
63.838868
 30
0.0
 10
508.282239
 20
59.551122
 30
0.0
 10
510.737996
 20
60.102020
 30
0.0
  0
LWPOLYLINE
  5
1d2
100
AcDbEntity
  8
Layer_1
 62
7
100
AcDbPolyline
 90
6
 70
0
 10
519.769107
 20
60.102020
 30
0.0
 10
521.545639
 20
63.838868
 30
0.0
 10
517.313350
 20
68.015672
 30
0.0
 10
513.081061
 20
63.838868
 30
0.0
 10
517.313350
 20
59.551122
 30
0.0
 10
519.769107
 20
60.102020
 30
0.0
  0
LWPOLYLINE
  5
1d3
100
AcDbEntity
  8
Layer_1
 62
7
100
AcDbPolyline
 90
6
 70
0
 10
528.800218
 20
60.102020
 30
0.0
 10
530.576750
 20
63.838868
 30
0.0
 10
526.344461
 20
68.015672
 30
0.0
 10
522.112172
 20
63.838868
 30
0.0
 10
526.344461
 20
59.551122
 30
0.0
 10
528.800218
 20
60.102020
 30
0.0
  0
LWPOLYLINE
  5
1d4
100
AcDbEntity
  8
Layer_1
 62
7
100
AcDbPolyline
 90
6
 70
0
 10
537.831329
 20
60.102020
 30
0.0
 10
539.607862
 20
63.838868
 30
0.0
 10
535.375572
 20
68.015672
 30
0.0
 10
531.143283
 20
63.838868
 30
0.0
 10
535.375572
 20
59.551122
 30
0.0
 10
537.831329
 20
60.102020
 30
0.0
  0
LWPOLYLINE
  5
1d5
100
AcDbEntity
  8
Layer_1
 62
7
100
AcDbPolyline
 90
6
 70
0
 10
546.862440
 20
60.102020
 30
0.0
 10
548.638973
 20
63.838868
 30
0.0
 10
544.406684
 20
68.015672
 30
0.0
 10
540.174394
 20
63.838868
 30
0.0
 10
544.406684
 20
59.551122
 30
0.0
 10
546.862440
 20
60.102020
 30
0.0
  0
LWPOLYLINE
  5
1d6
100
AcDbEntity
  8
Layer_1
 62
7
100
AcDbPolyline
 90
6
 70
0
 10
555.893551
 20
60.102020
 30
0.0
 10
557.670084
 20
63.838868
 30
0.0
 10
553.437795
 20
68.015672
 30
0.0
 10
549.205506
 20
63.838868
 30
0.0
 10
553.437795
 20
59.551122
 30
0.0
 10
555.893551
 20
60.102020
 30
0.0
  0
LWPOLYLINE
  5
1d7
100
AcDbEntity
  8
Layer_1
 62
7
100
AcDbPolyline
 90
6
 70
0
 10
573.955774
 20
60.102020
 30
0.0
 10
575.732306
 20
63.838868
 30
0.0
 10
571.500017
 20
68.015672
 30
0.0
 10
567.267728
 20
63.838868
 30
0.0
 10
571.500017
 20
59.551122
 30
0.0
 10
573.955774
 20
60.102020
 30
0.0
  0
LWPOLYLINE
  5
1d8
100
AcDbEntity
  8
Layer_1
 62
7
100
AcDbPolyline
 90
6
 70
0
 10
582.986885
 20
60.102020
 30
0.0
 10
584.763428
 20
63.838868
 30
0.0
 10
580.531128
 20
68.015672
 30
0.0
 10
576.298839
 20
63.838868
 30
0.0
 10
580.531128
 20
59.551122
 30
0.0
 10
582.986885
 20
60.102020
 30
0.0
  0
LWPOLYLINE
  5
1d9
100
AcDbEntity
  8
Layer_1
 62
7
100
AcDbPolyline
 90
6
 70
0
 10
646.204674
 20
60.102020
 30
0.0
 10
647.981206
 20
63.838868
 30
0.0
 10
643.748917
 20
68.015672
 30
0.0
 10
639.516628
 20
63.838868
 30
0.0
 10
643.748917
 20
59.551122
 30
0.0
 10
646.204674
 20
60.102020
 30
0.0
  0
LWPOLYLINE
  5
1da
100
AcDbEntity
  8
Layer_1
 62
7
100
AcDbPolyline
 90
6
 70
0
 10
655.235785
 20
60.102020
 30
0.0
 10
657.012317
 20
63.838868
 30
0.0
 10
652.780028
 20
68.015672
 30
0.0
 10
648.547739
 20
63.838868
 30
0.0
 10
652.780028
 20
59.551122
 30
0.0
 10
655.235785
 20
60.102020
 30
0.0
  0
LWPOLYLINE
  5
1db
100
AcDbEntity
  8
Layer_1
 62
7
100
AcDbPolyline
 90
6
 70
0
 10
709.422452
 20
60.102020
 30
0.0
 10
711.198984
 20
63.838868
 30
0.0
 10
706.966695
 20
68.015672
 30
0.0
 10
702.734406
 20
63.838868
 30
0.0
 10
706.966695
 20
59.551122
 30
0.0
 10
709.422452
 20
60.102020
 30
0.0
  0
LWPOLYLINE
  5
1dc
100
AcDbEntity
  8
Layer_1
 62
7
100
AcDbPolyline
 90
6
 70
0
 10
718.453563
 20
60.102020
 30
0.0
 10
720.230095
 20
63.838868
 30
0.0
 10
715.997806
 20
68.015672
 30
0.0
 10
711.765517
 20
63.838868
 30
0.0
 10
715.997806
 20
59.551122
 30
0.0
 10
718.453563
 20
60.102020
 30
0.0
  0
LWPOLYLINE
  5
1dd
100
AcDbEntity
  8
Layer_1
 62
7
100
AcDbPolyline
 90
7
 70
0
 10
22.961247
 20
69.115634
 30
0.0
 10
24.831850
 20
72.813337
 30
0.0
 10
20.602236
 20
77.042945
 30
0.0
 10
16.904518
 20
75.172348
 30
0.0
 10
16.904518
 20
70.454326
 30
0.0
 10
20.602236
 20
68.583729
 30
0.0
 10
22.961247
 20
69.115634
 30
0.0
  0
LWPOLYLINE
  5
1de
100
AcDbEntity
  8
Layer_1
 62
7
100
AcDbPolyline
 90
7
 70
0
 10
31.992358
 20
69.115634
 30
0.0
 10
33.862961
 20
72.813337
 30
0.0
 10
29.633347
 20
77.042945
 30
0.0
 10
27.274337
 20
76.511041
 30
0.0
 10
25.403734
 20
72.813337
 30
0.0
 10
29.633347
 20
68.583729
 30
0.0
 10
31.992358
 20
69.115634
 30
0.0
  0
LWPOLYLINE
  5
1df
100
AcDbEntity
  8
Layer_1
 62
7
100
AcDbPolyline
 90
6
 70
0
 10
95.210136
 20
69.115634
 30
0.0
 10
97.080739
 20
72.813337
 30
0.0
 10
92.851125
 20
77.042945
 30
0.0
 10
88.621512
 20
72.813337
 30
0.0
 10
92.851125
 20
68.583729
 30
0.0
 10
95.210136
 20
69.115634
 30
0.0
  0
LWPOLYLINE
  5
1e0
100
AcDbEntity
  8
Layer_1
 62
7
100
AcDbPolyline
 90
6
 70
0
 10
104.241247
 20
69.115634
 30
0.0
 10
106.111850
 20
72.813337
 30
0.0
 10
101.882236
 20
77.042945
 30
0.0
 10
97.652623
 20
72.813337
 30
0.0
 10
101.882236
 20
68.583729
 30
0.0
 10
104.241247
 20
69.115634
 30
0.0
  0
LWPOLYLINE
  5
1e1
100
AcDbEntity
  8
Layer_1
 62
7
100
AcDbPolyline
 90
6
 70
0
 10
149.396803
 20
69.115634
 30
0.0
 10
151.267406
 20
72.813337
 30
0.0
 10
147.037792
 20
77.042945
 30
0.0
 10
142.808178
 20
72.813337
 30
0.0
 10
147.037792
 20
68.583729
 30
0.0
 10
149.396803
 20
69.115634
 30
0.0
  0
LWPOLYLINE
  5
1e2
100
AcDbEntity
  8
Layer_1
 62
7
100
AcDbPolyline
 90
6
 70
0
 10
158.427914
 20
69.115634
 30
0.0
 10
160.298517
 20
72.813337
 30
0.0
 10
156.068903
 20
77.042945
 30
0.0
 10
151.839289
 20
72.813337
 30
0.0
 10
156.068903
 20
68.583729
 30
0.0
 10
158.427914
 20
69.115634
 30
0.0
  0
LWPOLYLINE
  5
1e3
100
AcDbEntity
  8
Layer_1
 62
7
100
AcDbPolyline
 90
6
 70
0
 10
248.835757
 20
69.133131
 30
0.0
 10
250.612292
 20
72.869979
 30
0.0
 10
246.380014
 20
77.046784
 30
0.0
 10
242.147736
 20
72.869979
 30
0.0
 10
246.380014
 20
68.582234
 30
0.0
 10
248.835757
 20
69.133131
 30
0.0
  0
LWPOLYLINE
  5
1e4
100
AcDbEntity
  8
Layer_1
 62
7
100
AcDbPolyline
 90
6
 70
0
 10
257.866868
 20
69.133131
 30
0.0
 10
259.643403
 20
72.869979
 30
0.0
 10
255.411125
 20
77.046784
 30
0.0
 10
251.178847
 20
72.869979
 30
0.0
 10
255.411125
 20
68.582234
 30
0.0
 10
257.866868
 20
69.133131
 30
0.0
  0
LWPOLYLINE
  5
1e5
100
AcDbEntity
  8
Layer_1
 62
7
100
AcDbPolyline
 90
6
 70
0
 10
321.084659
 20
69.133131
 30
0.0
 10
322.861191
 20
72.869979
 30
0.0
 10
318.628902
 20
77.046784
 30
0.0
 10
314.396613
 20
72.869979
 30
0.0
 10
318.628902
 20
68.582234
 30
0.0
 10
321.084659
 20
69.133131
 30
0.0
  0
LWPOLYLINE
  5
1e6
100
AcDbEntity
  8
Layer_1
 62
7
100
AcDbPolyline
 90
6
 70
0
 10
330.115770
 20
69.133131
 30
0.0
 10
331.892303
 20
72.869979
 30
0.0
 10
327.660013
 20
77.046784
 30
0.0
 10
323.427724
 20
72.869979
 30
0.0
 10
327.660013
 20
68.582234
 30
0.0
 10
330.115770
 20
69.133131
 30
0.0
  0
LWPOLYLINE
  5
1e7
100
AcDbEntity
  8
Layer_1
 62
7
100
AcDbPolyline
 90
6
 70
0
 10
348.177993
 20
69.133131
 30
0.0
 10
349.954525
 20
72.869979
 30
0.0
 10
345.722236
 20
77.046784
 30
0.0
 10
341.489947
 20
72.869979
 30
0.0
 10
345.722236
 20
68.582234
 30
0.0
 10
348.177993
 20
69.133131
 30
0.0
  0
LWPOLYLINE
  5
1e8
100
AcDbEntity
  8
Layer_1
 62
7
100
AcDbPolyline
 90
6
 70
0
 10
357.209104
 20
69.133131
 30
0.0
 10
358.985637
 20
72.869979
 30
0.0
 10
354.753347
 20
77.046784
 30
0.0
 10
350.521058
 20
72.869979
 30
0.0
 10
354.753347
 20
68.582234
 30
0.0
 10
357.209104
 20
69.133131
 30
0.0
  0
LWPOLYLINE
  5
1e9
100
AcDbEntity
  8
Layer_1
 62
7
100
AcDbPolyline
 90
6
 70
0
 10
420.426882
 20
69.133131
 30
0.0
 10
422.203414
 20
72.869979
 30
0.0
 10
417.971125
 20
77.046784
 30
0.0
 10
413.738836
 20
72.869979
 30
0.0
 10
417.971125
 20
68.582234
 30
0.0
 10
420.426882
 20
69.133131
 30
0.0
  0
LWPOLYLINE
  5
1ea
100
AcDbEntity
  8
Layer_1
 62
7
100
AcDbPolyline
 90
6
 70
0
 10
429.457993
 20
69.133131
 30
0.0
 10
431.234525
 20
72.869979
 30
0.0
 10
427.002236
 20
77.046784
 30
0.0
 10
422.769947
 20
72.869979
 30
0.0
 10
427.002236
 20
68.582234
 30
0.0
 10
429.457993
 20
69.133131
 30
0.0
  0
LWPOLYLINE
  5
1eb
100
AcDbEntity
  8
Layer_1
 62
7
100
AcDbPolyline
 90
6
 70
0
 10
474.613549
 20
69.133131
 30
0.0
 10
476.390084
 20
72.869979
 30
0.0
 10
472.157792
 20
77.046784
 30
0.0
 10
467.925503
 20
72.869979
 30
0.0
 10
472.157792
 20
68.582234
 30
0.0
 10
474.613549
 20
69.133131
 30
0.0
  0
LWPOLYLINE
  5
1ec
100
AcDbEntity
  8
Layer_1
 62
7
100
AcDbPolyline
 90
6
 70
0
 10
483.644662
 20
69.133131
 30
0.0
 10
485.421195
 20
72.869979
 30
0.0
 10
481.188906
 20
77.046784
 30
0.0
 10
476.956617
 20
72.869979
 30
0.0
 10
481.188906
 20
68.582234
 30
0.0
 10
483.644662
 20
69.133131
 30
0.0
  0
LWPOLYLINE
  5
1ed
100
AcDbEntity
  8
Layer_1
 62
7
100
AcDbPolyline
 90
6
 70
0
 10
546.862440
 20
69.133131
 30
0.0
 10
548.638973
 20
72.869979
 30
0.0
 10
544.406684
 20
77.046784
 30
0.0
 10
540.174394
 20
72.869979
 30
0.0
 10
544.406684
 20
68.582234
 30
0.0
 10
546.862440
 20
69.133131
 30
0.0
  0
LWPOLYLINE
  5
1ee
100
AcDbEntity
  8
Layer_1
 62
7
100
AcDbPolyline
 90
6
 70
0
 10
555.893551
 20
69.133131
 30
0.0
 10
557.670084
 20
72.869979
 30
0.0
 10
553.437795
 20
77.046784
 30
0.0
 10
549.205506
 20
72.869979
 30
0.0
 10
553.437795
 20
68.582234
 30
0.0
 10
555.893551
 20
69.133131
 30
0.0
  0
LWPOLYLINE
  5
1ef
100
AcDbEntity
  8
Layer_1
 62
7
100
AcDbPolyline
 90
6
 70
0
 10
573.955774
 20
69.133131
 30
0.0
 10
575.732306
 20
72.869979
 30
0.0
 10
571.500017
 20
77.046784
 30
0.0
 10
567.267728
 20
72.869979
 30
0.0
 10
571.500017
 20
68.582234
 30
0.0
 10
573.955774
 20
69.133131
 30
0.0
  0
LWPOLYLINE
  5
1f0
100
AcDbEntity
  8
Layer_1
 62
7
100
AcDbPolyline
 90
6
 70
0
 10
582.986885
 20
69.133131
 30
0.0
 10
584.763428
 20
72.869979
 30
0.0
 10
580.531128
 20
77.046784
 30
0.0
 10
576.298839
 20
72.869979
 30
0.0
 10
580.531128
 20
68.582234
 30
0.0
 10
582.986885
 20
69.133131
 30
0.0
  0
LWPOLYLINE
  5
1f1
100
AcDbEntity
  8
Layer_1
 62
7
100
AcDbPolyline
 90
6
 70
0
 10
646.107928
 20
69.115634
 30
0.0
 10
647.978525
 20
72.813337
 30
0.0
 10
643.748917
 20
77.042945
 30
0.0
 10
639.519309
 20
72.813337
 30
0.0
 10
643.748917
 20
68.583729
 30
0.0
 10
646.107928
 20
69.115634
 30
0.0
  0
LWPOLYLINE
  5
1f2
100
AcDbEntity
  8
Layer_1
 62
7
100
AcDbPolyline
 90
6
 70
0
 10
655.139039
 20
69.115634
 30
0.0
 10
657.009636
 20
72.813337
 30
0.0
 10
652.780028
 20
77.042945
 30
0.0
 10
648.550420
 20
72.813337
 30
0.0
 10
652.780028
 20
68.583729
 30
0.0
 10
655.139039
 20
69.115634
 30
0.0
  0
LWPOLYLINE
  5
1f3
100
AcDbEntity
  8
Layer_1
 62
7
100
AcDbPolyline
 90
6
 70
0
 10
709.325706
 20
69.115634
 30
0.0
 10
711.196303
 20
72.813337
 30
0.0
 10
706.966695
 20
77.042945
 30
0.0
 10
702.737087
 20
72.813337
 30
0.0
 10
706.966695
 20
68.583729
 30
0.0
 10
709.325706
 20
69.115634
 30
0.0
  0
LWPOLYLINE
  5
1f4
100
AcDbEntity
  8
Layer_1
 62
7
100
AcDbPolyline
 90
6
 70
0
 10
718.356817
 20
69.115634
 30
0.0
 10
720.227414
 20
72.813337
 30
0.0
 10
715.997806
 20
77.042945
 30
0.0
 10
711.768198
 20
72.813337
 30
0.0
 10
715.997806
 20
68.583729
 30
0.0
 10
718.356817
 20
69.115634
 30
0.0
  0
LWPOLYLINE
  5
1f5
100
AcDbEntity
  8
Layer_1
 62
7
100
AcDbPolyline
 90
7
 70
0
 10
22.961247
 20
78.146745
 30
0.0
 10
24.831850
 20
81.844448
 30
0.0
 10
20.602236
 20
86.074056
 30
0.0
 10
16.904518
 20
84.203459
 30
0.0
 10
16.904518
 20
79.485438
 30
0.0
 10
20.602236
 20
77.614840
 30
0.0
 10
22.961247
 20
78.146745
 30
0.0
  0
LWPOLYLINE
  5
1f6
100
AcDbEntity
  8
Layer_1
 62
7
100
AcDbPolyline
 90
7
 70
0
 10
31.992358
 20
78.146745
 30
0.0
 10
33.862961
 20
81.844448
 30
0.0
 10
29.633347
 20
86.074056
 30
0.0
 10
25.935641
 20
84.203459
 30
0.0
 10
25.403734
 20
81.844448
 30
0.0
 10
29.633347
 20
77.614840
 30
0.0
 10
31.992358
 20
78.146745
 30
0.0
  0
LWPOLYLINE
  5
1f7
100
AcDbEntity
  8
Layer_1
 62
7
100
AcDbPolyline
 90
8
 70
0
 10
41.023469
 20
78.146745
 30
0.0
 10
42.362165
 20
79.485438
 30
0.0
 10
42.362165
 20
84.203459
 30
0.0
 10
38.664459
 20
86.074056
 30
0.0
 10
34.966752
 20
84.203459
 30
0.0
 10
34.434845
 20
81.844448
 30
0.0
 10
38.664459
 20
77.614840
 30
0.0
 10
41.023469
 20
78.146745
 30
0.0
  0
LWPOLYLINE
  5
1f8
100
AcDbEntity
  8
Layer_1
 62
7
100
AcDbPolyline
 90
9
 70
0
 10
50.054581
 20
78.146745
 30
0.0
 10
51.393276
 20
79.485438
 30
0.0
 10
51.393276
 20
84.203459
 30
0.0
 10
47.695570
 20
86.074056
 30
0.0
 10
43.997863
 20
84.203459
 30
0.0
 10
43.465956
 20
81.844448
 30
0.0
 10
45.336559
 20
78.146745
 30
0.0
 10
47.695570
 20
77.614840
 30
0.0
 10
50.054581
 20
78.146745
 30
0.0
  0
LWPOLYLINE
  5
1f9
100
AcDbEntity
  8
Layer_1
 62
7
100
AcDbPolyline
 90
9
 70
0
 10
59.085692
 20
78.146745
 30
0.0
 10
60.424387
 20
79.485438
 30
0.0
 10
60.424387
 20
84.203459
 30
0.0
 10
56.726681
 20
86.074056
 30
0.0
 10
54.367670
 20
85.542152
 30
0.0
 10
52.497067
 20
81.844448
 30
0.0
 10
54.367670
 20
78.146745
 30
0.0
 10
56.726681
 20
77.614840
 30
0.0
 10
59.085692
 20
78.146745
 30
0.0
  0
LWPOLYLINE
  5
1fa
100
AcDbEntity
  8
Layer_1
 62
7
100
AcDbPolyline
 90
9
 70
0
 10
68.116803
 20
78.146745
 30
0.0
 10
69.455498
 20
79.485438
 30
0.0
 10
69.455498
 20
84.203459
 30
0.0
 10
65.757792
 20
86.074056
 30
0.0
 10
63.398781
 20
85.542152
 30
0.0
 10
61.528178
 20
81.844448
 30
0.0
 10
63.398781
 20
78.146745
 30
0.0
 10
65.757792
 20
77.614840
 30
0.0
 10
68.116803
 20
78.146745
 30
0.0
  0
LWPOLYLINE
  5
1fb
100
AcDbEntity
  8
Layer_1
 62
7
100
AcDbPolyline
 90
8
 70
0
 10
77.147914
 20
78.146745
 30
0.0
 10
79.018517
 20
81.844448
 30
0.0
 10
74.788903
 20
86.074056
 30
0.0
 10
71.091196
 20
84.203459
 30
0.0
 10
70.559289
 20
81.844448
 30
0.0
 10
71.091196
 20
79.485438
 30
0.0
 10
74.788903
 20
77.614840
 30
0.0
 10
77.147914
 20
78.146745
 30
0.0
  0
LWPOLYLINE
  5
1fc
100
AcDbEntity
  8
Layer_1
 62
7
100
AcDbPolyline
 90
6
 70
0
 10
86.179025
 20
78.146745
 30
0.0
 10
88.049628
 20
81.844448
 30
0.0
 10
83.820014
 20
86.074056
 30
0.0
 10
79.590400
 20
81.844448
 30
0.0
 10
83.820014
 20
77.614840
 30
0.0
 10
86.179025
 20
78.146745
 30
0.0
  0
LWPOLYLINE
  5
1fd
100
AcDbEntity
  8
Layer_1
 62
7
100
AcDbPolyline
 90
6
 70
0
 10
95.210136
 20
78.146745
 30
0.0
 10
97.080739
 20
81.844448
 30
0.0
 10
92.851125
 20
86.074056
 30
0.0
 10
88.621512
 20
81.844448
 30
0.0
 10
92.851125
 20
77.614840
 30
0.0
 10
95.210136
 20
78.146745
 30
0.0
  0
LWPOLYLINE
  5
1fe
100
AcDbEntity
  8
Layer_1
 62
7
100
AcDbPolyline
 90
6
 70
0
 10
104.241247
 20
78.146745
 30
0.0
 10
106.111850
 20
81.844448
 30
0.0
 10
101.882236
 20
86.074056
 30
0.0
 10
97.652623
 20
81.844448
 30
0.0
 10
101.882236
 20
77.614840
 30
0.0
 10
104.241247
 20
78.146745
 30
0.0
  0
LWPOLYLINE
  5
1ff
100
AcDbEntity
  8
Layer_1
 62
7
100
AcDbPolyline
 90
6
 70
0
 10
122.303469
 20
78.146745
 30
0.0
 10
124.174072
 20
81.844448
 30
0.0
 10
119.944459
 20
86.074056
 30
0.0
 10
115.714845
 20
81.844448
 30
0.0
 10
119.944459
 20
77.614840
 30
0.0
 10
122.303469
 20
78.146745
 30
0.0
  0
LWPOLYLINE
  5
200
100
AcDbEntity
  8
Layer_1
 62
7
100
AcDbPolyline
 90
6
 70
0
 10
131.334581
 20
78.146745
 30
0.0
 10
133.205183
 20
81.844448
 30
0.0
 10
128.975570
 20
86.074056
 30
0.0
 10
124.745956
 20
81.844448
 30
0.0
 10
128.975570
 20
77.614840
 30
0.0
 10
131.334581
 20
78.146745
 30
0.0
  0
LWPOLYLINE
  5
201
100
AcDbEntity
  8
Layer_1
 62
7
100
AcDbPolyline
 90
6
 70
0
 10
149.396803
 20
78.146745
 30
0.0
 10
151.267406
 20
81.844448
 30
0.0
 10
147.037792
 20
86.074056
 30
0.0
 10
142.808178
 20
81.844448
 30
0.0
 10
147.037792
 20
77.614840
 30
0.0
 10
149.396803
 20
78.146745
 30
0.0
  0
LWPOLYLINE
  5
202
100
AcDbEntity
  8
Layer_1
 62
7
100
AcDbPolyline
 90
6
 70
0
 10
158.427914
 20
78.146745
 30
0.0
 10
160.298517
 20
81.844448
 30
0.0
 10
156.068903
 20
86.074056
 30
0.0
 10
151.839289
 20
81.844448
 30
0.0
 10
156.068903
 20
77.614840
 30
0.0
 10
158.427914
 20
78.146745
 30
0.0
  0
LWPOLYLINE
  5
203
100
AcDbEntity
  8
Layer_1
 62
7
100
AcDbPolyline
 90
6
 70
0
 10
167.555754
 20
78.164242
 30
0.0
 10
169.332289
 20
81.901090
 30
0.0
 10
165.100014
 20
86.077895
 30
0.0
 10
160.867736
 20
81.901090
 30
0.0
 10
165.100014
 20
77.613345
 30
0.0
 10
167.555754
 20
78.164242
 30
0.0
  0
LWPOLYLINE
  5
204
100
AcDbEntity
  8
Layer_1
 62
7
100
AcDbPolyline
 90
6
 70
0
 10
176.586865
 20
78.164242
 30
0.0
 10
178.363400
 20
81.901090
 30
0.0
 10
174.131122
 20
86.077895
 30
0.0
 10
169.898845
 20
81.901090
 30
0.0
 10
174.131122
 20
77.613345
 30
0.0
 10
176.586865
 20
78.164242
 30
0.0
  0
LWPOLYLINE
  5
205
100
AcDbEntity
  8
Layer_1
 62
7
100
AcDbPolyline
 90
6
 70
0
 10
185.617976
 20
78.164242
 30
0.0
 10
187.394511
 20
81.901090
 30
0.0
 10
183.162234
 20
86.077895
 30
0.0
 10
178.929956
 20
81.901090
 30
0.0
 10
183.162234
 20
77.613345
 30
0.0
 10
185.617976
 20
78.164242
 30
0.0
  0
LWPOLYLINE
  5
206
100
AcDbEntity
  8
Layer_1
 62
7
100
AcDbPolyline
 90
6
 70
0
 10
194.649087
 20
78.164242
 30
0.0
 10
196.425622
 20
81.901090
 30
0.0
 10
192.193345
 20
86.077895
 30
0.0
 10
187.961067
 20
81.901090
 30
0.0
 10
192.193345
 20
77.613345
 30
0.0
 10
194.649087
 20
78.164242
 30
0.0
  0
LWPOLYLINE
  5
207
100
AcDbEntity
  8
Layer_1
 62
7
100
AcDbPolyline
 90
6
 70
0
 10
203.680198
 20
78.164242
 30
0.0
 10
205.456734
 20
81.901090
 30
0.0
 10
201.224456
 20
86.077895
 30
0.0
 10
196.992178
 20
81.901090
 30
0.0
 10
201.224456
 20
77.613345
 30
0.0
 10
203.680198
 20
78.164242
 30
0.0
  0
LWPOLYLINE
  5
208
100
AcDbEntity
  8
Layer_1
 62
7
100
AcDbPolyline
 90
6
 70
0
 10
212.711309
 20
78.164242
 30
0.0
 10
214.487845
 20
81.901090
 30
0.0
 10
210.255567
 20
86.077895
 30
0.0
 10
206.023289
 20
81.901090
 30
0.0
 10
210.255567
 20
77.613345
 30
0.0
 10
212.711309
 20
78.164242
 30
0.0
  0
LWPOLYLINE
  5
209
100
AcDbEntity
  8
Layer_1
 62
7
100
AcDbPolyline
 90
6
 70
0
 10
221.742421
 20
78.164242
 30
0.0
 10
223.518959
 20
81.901090
 30
0.0
 10
219.286678
 20
86.077895
 30
0.0
 10
215.054400
 20
81.901090
 30
0.0
 10
219.286678
 20
77.613345
 30
0.0
 10
221.742421
 20
78.164242
 30
0.0
  0
LWPOLYLINE
  5
20a
100
AcDbEntity
  8
Layer_1
 62
7
100
AcDbPolyline
 90
6
 70
0
 10
230.773534
 20
78.164242
 30
0.0
 10
232.550070
 20
81.901090
 30
0.0
 10
228.317792
 20
86.077895
 30
0.0
 10
224.085514
 20
81.901090
 30
0.0
 10
228.317792
 20
77.613345
 30
0.0
 10
230.773534
 20
78.164242
 30
0.0
  0
LWPOLYLINE
  5
20b
100
AcDbEntity
  8
Layer_1
 62
7
100
AcDbPolyline
 90
6
 70
0
 10
248.835757
 20
78.164242
 30
0.0
 10
250.612292
 20
81.901090
 30
0.0
 10
246.380014
 20
86.077895
 30
0.0
 10
242.147736
 20
81.901090
 30
0.0
 10
246.380014
 20
77.613345
 30
0.0
 10
248.835757
 20
78.164242
 30
0.0
  0
LWPOLYLINE
  5
20c
100
AcDbEntity
  8
Layer_1
 62
7
100
AcDbPolyline
 90
6
 70
0
 10
257.866868
 20
78.164242
 30
0.0
 10
259.643403
 20
81.901090
 30
0.0
 10
255.411125
 20
86.077895
 30
0.0
 10
251.178847
 20
81.901090
 30
0.0
 10
255.411125
 20
77.613345
 30
0.0
 10
257.866868
 20
78.164242
 30
0.0
  0
LWPOLYLINE
  5
20d
100
AcDbEntity
  8
Layer_1
 62
7
100
AcDbPolyline
 90
6
 70
0
 10
266.897979
 20
78.164242
 30
0.0
 10
268.674514
 20
81.901090
 30
0.0
 10
264.442236
 20
86.077895
 30
0.0
 10
260.209959
 20
81.901090
 30
0.0
 10
264.442236
 20
77.613345
 30
0.0
 10
266.897979
 20
78.164242
 30
0.0
  0
LWPOLYLINE
  5
20e
100
AcDbEntity
  8
Layer_1
 62
7
100
AcDbPolyline
 90
6
 70
0
 10
275.929089
 20
78.164242
 30
0.0
 10
277.705624
 20
81.901090
 30
0.0
 10
273.473347
 20
86.077895
 30
0.0
 10
269.241070
 20
81.901090
 30
0.0
 10
273.473347
 20
77.613345
 30
0.0
 10
275.929089
 20
78.164242
 30
0.0
  0
LWPOLYLINE
  5
20f
100
AcDbEntity
  8
Layer_1
 62
7
100
AcDbPolyline
 90
6
 70
0
 10
284.960214
 20
78.164242
 30
0.0
 10
286.736747
 20
81.901090
 30
0.0
 10
282.504458
 20
86.077895
 30
0.0
 10
278.272180
 20
81.901090
 30
0.0
 10
282.504458
 20
77.613345
 30
0.0
 10
284.960214
 20
78.164242
 30
0.0
  0
LWPOLYLINE
  5
210
100
AcDbEntity
  8
Layer_1
 62
7
100
AcDbPolyline
 90
6
 70
0
 10
293.991325
 20
78.164242
 30
0.0
 10
295.767858
 20
81.901090
 30
0.0
 10
291.535569
 20
86.077895
 30
0.0
 10
287.303280
 20
81.901090
 30
0.0
 10
291.535569
 20
77.613345
 30
0.0
 10
293.991325
 20
78.164242
 30
0.0
  0
LWPOLYLINE
  5
211
100
AcDbEntity
  8
Layer_1
 62
7
100
AcDbPolyline
 90
6
 70
0
 10
303.022437
 20
78.164242
 30
0.0
 10
304.798969
 20
81.901090
 30
0.0
 10
300.566680
 20
86.077895
 30
0.0
 10
296.334391
 20
81.901090
 30
0.0
 10
300.566680
 20
77.613345
 30
0.0
 10
303.022437
 20
78.164242
 30
0.0
  0
LWPOLYLINE
  5
212
100
AcDbEntity
  8
Layer_1
 62
7
100
AcDbPolyline
 90
6
 70
0
 10
312.053548
 20
78.164242
 30
0.0
 10
313.830080
 20
81.901090
 30
0.0
 10
309.597791
 20
86.077895
 30
0.0
 10
305.365502
 20
81.901090
 30
0.0
 10
309.597791
 20
77.613345
 30
0.0
 10
312.053548
 20
78.164242
 30
0.0
  0
LWPOLYLINE
  5
213
100
AcDbEntity
  8
Layer_1
 62
7
100
AcDbPolyline
 90
6
 70
0
 10
321.084659
 20
78.164242
 30
0.0
 10
322.861191
 20
81.901090
 30
0.0
 10
318.628902
 20
86.077895
 30
0.0
 10
314.396613
 20
81.901090
 30
0.0
 10
318.628902
 20
77.613345
 30
0.0
 10
321.084659
 20
78.164242
 30
0.0
  0
LWPOLYLINE
  5
214
100
AcDbEntity
  8
Layer_1
 62
7
100
AcDbPolyline
 90
6
 70
0
 10
330.115770
 20
78.164242
 30
0.0
 10
331.892303
 20
81.901090
 30
0.0
 10
327.660013
 20
86.077895
 30
0.0
 10
323.427724
 20
81.901090
 30
0.0
 10
327.660013
 20
77.613345
 30
0.0
 10
330.115770
 20
78.164242
 30
0.0
  0
LWPOLYLINE
  5
215
100
AcDbEntity
  8
Layer_1
 62
7
100
AcDbPolyline
 90
6
 70
0
 10
348.177993
 20
78.164242
 30
0.0
 10
349.954525
 20
81.901090
 30
0.0
 10
345.722236
 20
86.077895
 30
0.0
 10
341.489947
 20
81.901090
 30
0.0
 10
345.722236
 20
77.613345
 30
0.0
 10
348.177993
 20
78.164242
 30
0.0
  0
LWPOLYLINE
  5
216
100
AcDbEntity
  8
Layer_1
 62
7
100
AcDbPolyline
 90
6
 70
0
 10
357.209104
 20
78.164242
 30
0.0
 10
358.985637
 20
81.901090
 30
0.0
 10
354.753347
 20
86.077895
 30
0.0
 10
350.521058
 20
81.901090
 30
0.0
 10
354.753347
 20
77.613345
 30
0.0
 10
357.209104
 20
78.164242
 30
0.0
  0
LWPOLYLINE
  5
217
100
AcDbEntity
  8
Layer_1
 62
7
100
AcDbPolyline
 90
6
 70
0
 10
366.240215
 20
78.164242
 30
0.0
 10
368.016748
 20
81.901090
 30
0.0
 10
363.784459
 20
86.077895
 30
0.0
 10
359.552169
 20
81.901090
 30
0.0
 10
363.784459
 20
77.613345
 30
0.0
 10
366.240215
 20
78.164242
 30
0.0
  0
LWPOLYLINE
  5
218
100
AcDbEntity
  8
Layer_1
 62
7
100
AcDbPolyline
 90
6
 70
0
 10
375.271326
 20
78.164242
 30
0.0
 10
377.047859
 20
81.901090
 30
0.0
 10
372.815570
 20
86.077895
 30
0.0
 10
368.583281
 20
81.901090
 30
0.0
 10
372.815570
 20
77.613345
 30
0.0
 10
375.271326
 20
78.164242
 30
0.0
  0
LWPOLYLINE
  5
219
100
AcDbEntity
  8
Layer_1
 62
7
100
AcDbPolyline
 90
6
 70
0
 10
384.302437
 20
78.164242
 30
0.0
 10
386.078970
 20
81.901090
 30
0.0
 10
381.846681
 20
86.077895
 30
0.0
 10
377.614392
 20
81.901090
 30
0.0
 10
381.846681
 20
77.613345
 30
0.0
 10
384.302437
 20
78.164242
 30
0.0
  0
LWPOLYLINE
  5
21a
100
AcDbEntity
  8
Layer_1
 62
7
100
AcDbPolyline
 90
6
 70
0
 10
393.333549
 20
78.164242
 30
0.0
 10
395.110081
 20
81.901090
 30
0.0
 10
390.877792
 20
86.077895
 30
0.0
 10
386.645503
 20
81.901090
 30
0.0
 10
390.877792
 20
77.613345
 30
0.0
 10
393.333549
 20
78.164242
 30
0.0
  0
LWPOLYLINE
  5
21b
100
AcDbEntity
  8
Layer_1
 62
7
100
AcDbPolyline
 90
6
 70
0
 10
402.364660
 20
78.164242
 30
0.0
 10
404.141192
 20
81.901090
 30
0.0
 10
399.908903
 20
86.077895
 30
0.0
 10
395.676614
 20
81.901090
 30
0.0
 10
399.908903
 20
77.613345
 30
0.0
 10
402.364660
 20
78.164242
 30
0.0
  0
LWPOLYLINE
  5
21c
100
AcDbEntity
  8
Layer_1
 62
7
100
AcDbPolyline
 90
6
 70
0
 10
411.395771
 20
78.164242
 30
0.0
 10
413.172303
 20
81.901090
 30
0.0
 10
408.940014
 20
86.077895
 30
0.0
 10
404.707725
 20
81.901090
 30
0.0
 10
408.940014
 20
77.613345
 30
0.0
 10
411.395771
 20
78.164242
 30
0.0
  0
LWPOLYLINE
  5
21d
100
AcDbEntity
  8
Layer_1
 62
7
100
AcDbPolyline
 90
6
 70
0
 10
420.426882
 20
78.164242
 30
0.0
 10
422.203414
 20
81.901090
 30
0.0
 10
417.971125
 20
86.077895
 30
0.0
 10
413.738836
 20
81.901090
 30
0.0
 10
417.971125
 20
77.613345
 30
0.0
 10
420.426882
 20
78.164242
 30
0.0
  0
LWPOLYLINE
  5
21e
100
AcDbEntity
  8
Layer_1
 62
7
100
AcDbPolyline
 90
6
 70
0
 10
429.457993
 20
78.164242
 30
0.0
 10
431.234525
 20
81.901090
 30
0.0
 10
427.002236
 20
86.077895
 30
0.0
 10
422.769947
 20
81.901090
 30
0.0
 10
427.002236
 20
77.613345
 30
0.0
 10
429.457993
 20
78.164242
 30
0.0
  0
LWPOLYLINE
  5
21f
100
AcDbEntity
  8
Layer_1
 62
7
100
AcDbPolyline
 90
6
 70
0
 10
447.520215
 20
78.164242
 30
0.0
 10
449.296748
 20
81.901090
 30
0.0
 10
445.064459
 20
86.077895
 30
0.0
 10
440.832169
 20
81.901090
 30
0.0
 10
445.064459
 20
77.613345
 30
0.0
 10
447.520215
 20
78.164242
 30
0.0
  0
LWPOLYLINE
  5
220
100
AcDbEntity
  8
Layer_1
 62
7
100
AcDbPolyline
 90
6
 70
0
 10
456.551326
 20
78.164242
 30
0.0
 10
458.327859
 20
81.901090
 30
0.0
 10
454.095570
 20
86.077895
 30
0.0
 10
449.863281
 20
81.901090
 30
0.0
 10
454.095570
 20
77.613345
 30
0.0
 10
456.551326
 20
78.164242
 30
0.0
  0
LWPOLYLINE
  5
221
100
AcDbEntity
  8
Layer_1
 62
7
100
AcDbPolyline
 90
6
 70
0
 10
474.613549
 20
78.164242
 30
0.0
 10
476.390084
 20
81.901090
 30
0.0
 10
472.157792
 20
86.077895
 30
0.0
 10
467.925503
 20
81.901090
 30
0.0
 10
472.157792
 20
77.613345
 30
0.0
 10
474.613549
 20
78.164242
 30
0.0
  0
LWPOLYLINE
  5
222
100
AcDbEntity
  8
Layer_1
 62
7
100
AcDbPolyline
 90
6
 70
0
 10
483.644662
 20
78.164242
 30
0.0
 10
485.421195
 20
81.901090
 30
0.0
 10
481.188906
 20
86.077895
 30
0.0
 10
476.956617
 20
81.901090
 30
0.0
 10
481.188906
 20
77.613345
 30
0.0
 10
483.644662
 20
78.164242
 30
0.0
  0
LWPOLYLINE
  5
223
100
AcDbEntity
  8
Layer_1
 62
7
100
AcDbPolyline
 90
6
 70
0
 10
492.675774
 20
78.164242
 30
0.0
 10
494.452306
 20
81.901090
 30
0.0
 10
490.220017
 20
86.077895
 30
0.0
 10
485.987728
 20
81.901090
 30
0.0
 10
490.220017
 20
77.613345
 30
0.0
 10
492.675774
 20
78.164242
 30
0.0
  0
LWPOLYLINE
  5
224
100
AcDbEntity
  8
Layer_1
 62
7
100
AcDbPolyline
 90
6
 70
0
 10
501.706885
 20
78.164242
 30
0.0
 10
503.483417
 20
81.901090
 30
0.0
 10
499.251128
 20
86.077895
 30
0.0
 10
495.018839
 20
81.901090
 30
0.0
 10
499.251128
 20
77.613345
 30
0.0
 10
501.706885
 20
78.164242
 30
0.0
  0
LWPOLYLINE
  5
225
100
AcDbEntity
  8
Layer_1
 62
7
100
AcDbPolyline
 90
6
 70
0
 10
510.737996
 20
78.164242
 30
0.0
 10
512.514528
 20
81.901090
 30
0.0
 10
508.282239
 20
86.077895
 30
0.0
 10
504.049950
 20
81.901090
 30
0.0
 10
508.282239
 20
77.613345
 30
0.0
 10
510.737996
 20
78.164242
 30
0.0
  0
LWPOLYLINE
  5
226
100
AcDbEntity
  8
Layer_1
 62
7
100
AcDbPolyline
 90
6
 70
0
 10
519.769107
 20
78.164242
 30
0.0
 10
521.545639
 20
81.901090
 30
0.0
 10
517.313350
 20
86.077895
 30
0.0
 10
513.081061
 20
81.901090
 30
0.0
 10
517.313350
 20
77.613345
 30
0.0
 10
519.769107
 20
78.164242
 30
0.0
  0
LWPOLYLINE
  5
227
100
AcDbEntity
  8
Layer_1
 62
7
100
AcDbPolyline
 90
6
 70
0
 10
528.800218
 20
78.164242
 30
0.0
 10
530.576750
 20
81.901090
 30
0.0
 10
526.344461
 20
86.077895
 30
0.0
 10
522.112172
 20
81.901090
 30
0.0
 10
526.344461
 20
77.613345
 30
0.0
 10
528.800218
 20
78.164242
 30
0.0
  0
LWPOLYLINE
  5
228
100
AcDbEntity
  8
Layer_1
 62
7
100
AcDbPolyline
 90
6
 70
0
 10
537.831329
 20
78.164242
 30
0.0
 10
539.607862
 20
81.901090
 30
0.0
 10
535.375572
 20
86.077895
 30
0.0
 10
531.143283
 20
81.901090
 30
0.0
 10
535.375572
 20
77.613345
 30
0.0
 10
537.831329
 20
78.164242
 30
0.0
  0
LWPOLYLINE
  5
229
100
AcDbEntity
  8
Layer_1
 62
7
100
AcDbPolyline
 90
6
 70
0
 10
546.862440
 20
78.164242
 30
0.0
 10
548.638973
 20
81.901090
 30
0.0
 10
544.406684
 20
86.077895
 30
0.0
 10
540.174394
 20
81.901090
 30
0.0
 10
544.406684
 20
77.613345
 30
0.0
 10
546.862440
 20
78.164242
 30
0.0
  0
LWPOLYLINE
  5
22a
100
AcDbEntity
  8
Layer_1
 62
7
100
AcDbPolyline
 90
6
 70
0
 10
555.893551
 20
78.164242
 30
0.0
 10
557.670084
 20
81.901090
 30
0.0
 10
553.437795
 20
86.077895
 30
0.0
 10
549.205506
 20
81.901090
 30
0.0
 10
553.437795
 20
77.613345
 30
0.0
 10
555.893551
 20
78.164242
 30
0.0
  0
LWPOLYLINE
  5
22b
100
AcDbEntity
  8
Layer_1
 62
7
100
AcDbPolyline
 90
6
 70
0
 10
573.955774
 20
78.164242
 30
0.0
 10
575.732306
 20
81.901090
 30
0.0
 10
571.500017
 20
86.077895
 30
0.0
 10
567.267728
 20
81.901090
 30
0.0
 10
571.500017
 20
77.613345
 30
0.0
 10
573.955774
 20
78.164242
 30
0.0
  0
LWPOLYLINE
  5
22c
100
AcDbEntity
  8
Layer_1
 62
7
100
AcDbPolyline
 90
6
 70
0
 10
582.986885
 20
78.164242
 30
0.0
 10
584.763428
 20
81.901090
 30
0.0
 10
580.531128
 20
86.077895
 30
0.0
 10
576.298839
 20
81.901090
 30
0.0
 10
580.531128
 20
77.613345
 30
0.0
 10
582.986885
 20
78.164242
 30
0.0
  0
LWPOLYLINE
  5
22d
100
AcDbEntity
  8
Layer_1
 62
7
100
AcDbPolyline
 90
6
 70
0
 10
592.018007
 20
78.164242
 30
0.0
 10
593.794540
 20
81.901090
 30
0.0
 10
589.562250
 20
86.077895
 30
0.0
 10
585.329961
 20
81.901090
 30
0.0
 10
589.562250
 20
77.613345
 30
0.0
 10
592.018007
 20
78.164242
 30
0.0
  0
LWPOLYLINE
  5
22e
100
AcDbEntity
  8
Layer_1
 62
7
100
AcDbPolyline
 90
6
 70
0
 10
600.952372
 20
78.146745
 30
0.0
 10
602.822970
 20
81.844448
 30
0.0
 10
598.593362
 20
86.074056
 30
0.0
 10
594.363754
 20
81.844448
 30
0.0
 10
598.593362
 20
77.614840
 30
0.0
 10
600.952372
 20
78.146745
 30
0.0
  0
LWPOLYLINE
  5
22f
100
AcDbEntity
  8
Layer_1
 62
7
100
AcDbPolyline
 90
6
 70
0
 10
609.983484
 20
78.146745
 30
0.0
 10
611.854081
 20
81.844448
 30
0.0
 10
607.624473
 20
86.074056
 30
0.0
 10
603.394865
 20
81.844448
 30
0.0
 10
607.624473
 20
77.614840
 30
0.0
 10
609.983484
 20
78.146745
 30
0.0
  0
LWPOLYLINE
  5
230
100
AcDbEntity
  8
Layer_1
 62
7
100
AcDbPolyline
 90
6
 70
0
 10
619.014595
 20
78.146745
 30
0.0
 10
620.885192
 20
81.844448
 30
0.0
 10
616.655584
 20
86.074056
 30
0.0
 10
612.425976
 20
81.844448
 30
0.0
 10
616.655584
 20
77.614840
 30
0.0
 10
619.014595
 20
78.146745
 30
0.0
  0
LWPOLYLINE
  5
231
100
AcDbEntity
  8
Layer_1
 62
7
100
AcDbPolyline
 90
6
 70
0
 10
628.045706
 20
78.146745
 30
0.0
 10
629.916303
 20
81.844448
 30
0.0
 10
625.686695
 20
86.074056
 30
0.0
 10
621.457087
 20
81.844448
 30
0.0
 10
625.686695
 20
77.614840
 30
0.0
 10
628.045706
 20
78.146745
 30
0.0
  0
LWPOLYLINE
  5
232
100
AcDbEntity
  8
Layer_1
 62
7
100
AcDbPolyline
 90
6
 70
0
 10
637.076817
 20
78.146745
 30
0.0
 10
638.947414
 20
81.844448
 30
0.0
 10
634.717806
 20
86.074056
 30
0.0
 10
630.488198
 20
81.844448
 30
0.0
 10
634.717806
 20
77.614840
 30
0.0
 10
637.076817
 20
78.146745
 30
0.0
  0
LWPOLYLINE
  5
233
100
AcDbEntity
  8
Layer_1
 62
7
100
AcDbPolyline
 90
6
 70
0
 10
646.107928
 20
78.146745
 30
0.0
 10
647.978525
 20
81.844448
 30
0.0
 10
643.748917
 20
86.074056
 30
0.0
 10
639.519309
 20
81.844448
 30
0.0
 10
643.748917
 20
77.614840
 30
0.0
 10
646.107928
 20
78.146745
 30
0.0
  0
LWPOLYLINE
  5
234
100
AcDbEntity
  8
Layer_1
 62
7
100
AcDbPolyline
 90
6
 70
0
 10
655.139039
 20
78.146745
 30
0.0
 10
657.009636
 20
81.844448
 30
0.0
 10
652.780028
 20
86.074056
 30
0.0
 10
648.550420
 20
81.844448
 30
0.0
 10
652.780028
 20
77.614840
 30
0.0
 10
655.139039
 20
78.146745
 30
0.0
  0
LWPOLYLINE
  5
235
100
AcDbEntity
  8
Layer_1
 62
7
100
AcDbPolyline
 90
6
 70
0
 10
673.201261
 20
78.146745
 30
0.0
 10
675.071858
 20
81.844448
 30
0.0
 10
670.842250
 20
86.074056
 30
0.0
 10
666.612642
 20
81.844448
 30
0.0
 10
670.842250
 20
77.614840
 30
0.0
 10
673.201261
 20
78.146745
 30
0.0
  0
LWPOLYLINE
  5
236
100
AcDbEntity
  8
Layer_1
 62
7
100
AcDbPolyline
 90
6
 70
0
 10
682.232372
 20
78.146745
 30
0.0
 10
684.102970
 20
81.844448
 30
0.0
 10
679.873362
 20
86.074056
 30
0.0
 10
675.643754
 20
81.844448
 30
0.0
 10
679.873362
 20
77.614840
 30
0.0
 10
682.232372
 20
78.146745
 30
0.0
  0
LWPOLYLINE
  5
237
100
AcDbEntity
  8
Layer_1
 62
7
100
AcDbPolyline
 90
6
 70
0
 10
691.263484
 20
78.146745
 30
0.0
 10
693.134081
 20
81.844448
 30
0.0
 10
688.904473
 20
86.074056
 30
0.0
 10
684.674865
 20
81.844448
 30
0.0
 10
688.904473
 20
77.614840
 30
0.0
 10
691.263484
 20
78.146745
 30
0.0
  0
LWPOLYLINE
  5
238
100
AcDbEntity
  8
Layer_1
 62
7
100
AcDbPolyline
 90
6
 70
0
 10
700.294595
 20
78.146745
 30
0.0
 10
702.165192
 20
81.844448
 30
0.0
 10
697.935584
 20
86.074056
 30
0.0
 10
693.705976
 20
81.844448
 30
0.0
 10
697.935584
 20
77.614840
 30
0.0
 10
700.294595
 20
78.146745
 30
0.0
  0
LWPOLYLINE
  5
239
100
AcDbEntity
  8
Layer_1
 62
7
100
AcDbPolyline
 90
6
 70
0
 10
709.325706
 20
78.146745
 30
0.0
 10
711.196303
 20
81.844448
 30
0.0
 10
706.966695
 20
86.074056
 30
0.0
 10
702.737087
 20
81.844448
 30
0.0
 10
706.966695
 20
77.614840
 30
0.0
 10
709.325706
 20
78.146745
 30
0.0
  0
LWPOLYLINE
  5
23a
100
AcDbEntity
  8
Layer_1
 62
7
100
AcDbPolyline
 90
6
 70
0
 10
718.356817
 20
78.146745
 30
0.0
 10
720.227414
 20
81.844448
 30
0.0
 10
715.997806
 20
86.074056
 30
0.0
 10
711.768198
 20
81.844448
 30
0.0
 10
715.997806
 20
77.614840
 30
0.0
 10
718.356817
 20
78.146745
 30
0.0
  0
LWPOLYLINE
  5
23b
100
AcDbEntity
  8
Layer_1
 62
7
100
AcDbPolyline
 90
6
 70
0
 10
727.387928
 20
78.146745
 30
0.0
 10
729.258525
 20
81.844448
 30
0.0
 10
725.028917
 20
86.074056
 30
0.0
 10
720.799309
 20
81.844448
 30
0.0
 10
725.028917
 20
77.614840
 30
0.0
 10
727.387928
 20
78.146745
 30
0.0
  0
LWPOLYLINE
  5
23c
100
AcDbEntity
  8
Layer_1
 62
7
100
AcDbPolyline
 90
6
 70
0
 10
736.419039
 20
78.146745
 30
0.0
 10
738.289636
 20
81.844448
 30
0.0
 10
734.060028
 20
86.074056
 30
0.0
 10
729.830420
 20
81.844448
 30
0.0
 10
734.060028
 20
77.614840
 30
0.0
 10
736.419039
 20
78.146745
 30
0.0
  0
LWPOLYLINE
  5
23d
100
AcDbEntity
  8
Layer_1
 62
7
100
AcDbPolyline
 90
6
 70
0
 10
745.450150
 20
78.146745
 30
0.0
 10
747.320747
 20
81.844448
 30
0.0
 10
743.091139
 20
86.074056
 30
0.0
 10
738.861531
 20
81.844448
 30
0.0
 10
743.091139
 20
77.614840
 30
0.0
 10
745.450150
 20
78.146745
 30
0.0
  0
LWPOLYLINE
  5
23e
100
AcDbEntity
  8
Layer_1
 62
7
100
AcDbPolyline
 90
6
 70
0
 10
754.481261
 20
78.146745
 30
0.0
 10
756.351858
 20
81.844448
 30
0.0
 10
752.122250
 20
86.074056
 30
0.0
 10
747.892642
 20
81.844448
 30
0.0
 10
752.122250
 20
77.614840
 30
0.0
 10
754.481261
 20
78.146745
 30
0.0
  0
LWPOLYLINE
  5
23f
100
AcDbEntity
  8
Layer_1
 62
7
100
AcDbPolyline
 90
7
 70
0
 10
22.961247
 20
87.177856
 30
0.0
 10
24.831850
 20
90.875560
 30
0.0
 10
20.602236
 20
95.105170
 30
0.0
 10
16.904518
 20
93.234570
 30
0.0
 10
16.904518
 20
88.516549
 30
0.0
 10
20.602236
 20
86.645952
 30
0.0
 10
22.961247
 20
87.177856
 30
0.0
  0
LWPOLYLINE
  5
240
100
AcDbEntity
  8
Layer_1
 62
7
100
AcDbPolyline
 90
7
 70
0
 10
31.992358
 20
87.177856
 30
0.0
 10
33.862961
 20
90.875560
 30
0.0
 10
29.633347
 20
95.105170
 30
0.0
 10
25.935641
 20
93.234570
 30
0.0
 10
25.403734
 20
90.875560
 30
0.0
 10
29.633347
 20
86.645952
 30
0.0
 10
31.992358
 20
87.177856
 30
0.0
  0
LWPOLYLINE
  5
241
100
AcDbEntity
  8
Layer_1
 62
7
100
AcDbPolyline
 90
7
 70
0
 10
41.023469
 20
87.177856
 30
0.0
 10
42.894072
 20
90.875560
 30
0.0
 10
38.664459
 20
95.105170
 30
0.0
 10
36.305448
 20
94.573263
 30
0.0
 10
34.434845
 20
90.875560
 30
0.0
 10
38.664459
 20
86.645952
 30
0.0
 10
41.023469
 20
87.177856
 30
0.0
  0
LWPOLYLINE
  5
242
100
AcDbEntity
  8
Layer_1
 62
7
100
AcDbPolyline
 90
8
 70
0
 10
50.054581
 20
87.177856
 30
0.0
 10
51.925183
 20
90.875560
 30
0.0
 10
47.695570
 20
95.105170
 30
0.0
 10
43.997863
 20
93.234570
 30
0.0
 10
43.465956
 20
90.875560
 30
0.0
 10
43.997863
 20
88.516549
 30
0.0
 10
47.695570
 20
86.645952
 30
0.0
 10
50.054581
 20
87.177856
 30
0.0
  0
LWPOLYLINE
  5
243
100
AcDbEntity
  8
Layer_1
 62
7
100
AcDbPolyline
 90
8
 70
0
 10
59.085692
 20
87.177856
 30
0.0
 10
60.956294
 20
90.875560
 30
0.0
 10
56.726681
 20
95.105170
 30
0.0
 10
53.028974
 20
93.234570
 30
0.0
 10
52.497067
 20
90.875560
 30
0.0
 10
53.028974
 20
88.516549
 30
0.0
 10
56.726681
 20
86.645952
 30
0.0
 10
59.085692
 20
87.177856
 30
0.0
  0
LWPOLYLINE
  5
244
100
AcDbEntity
  8
Layer_1
 62
7
100
AcDbPolyline
 90
8
 70
0
 10
68.116803
 20
87.177856
 30
0.0
 10
69.987406
 20
90.875560
 30
0.0
 10
65.757792
 20
95.105170
 30
0.0
 10
62.060085
 20
93.234570
 30
0.0
 10
61.528178
 20
90.875560
 30
0.0
 10
62.060085
 20
88.516549
 30
0.0
 10
65.757792
 20
86.645952
 30
0.0
 10
68.116803
 20
87.177856
 30
0.0
  0
LWPOLYLINE
  5
245
100
AcDbEntity
  8
Layer_1
 62
7
100
AcDbPolyline
 90
8
 70
0
 10
77.147914
 20
87.177856
 30
0.0
 10
79.018517
 20
90.875560
 30
0.0
 10
74.788903
 20
95.105170
 30
0.0
 10
71.091196
 20
93.234570
 30
0.0
 10
70.559289
 20
90.875560
 30
0.0
 10
71.091196
 20
88.516549
 30
0.0
 10
74.788903
 20
86.645952
 30
0.0
 10
77.147914
 20
87.177856
 30
0.0
  0
LWPOLYLINE
  5
246
100
AcDbEntity
  8
Layer_1
 62
7
100
AcDbPolyline
 90
6
 70
0
 10
86.179025
 20
87.177856
 30
0.0
 10
88.049628
 20
90.875560
 30
0.0
 10
83.820014
 20
95.105170
 30
0.0
 10
79.590400
 20
90.875560
 30
0.0
 10
83.820014
 20
86.645952
 30
0.0
 10
86.179025
 20
87.177856
 30
0.0
  0
LWPOLYLINE
  5
247
100
AcDbEntity
  8
Layer_1
 62
7
100
AcDbPolyline
 90
6
 70
0
 10
95.210136
 20
87.177856
 30
0.0
 10
97.080739
 20
90.875560
 30
0.0
 10
92.851125
 20
95.105170
 30
0.0
 10
88.621512
 20
90.875560
 30
0.0
 10
92.851125
 20
86.645952
 30
0.0
 10
95.210136
 20
87.177856
 30
0.0
  0
LWPOLYLINE
  5
248
100
AcDbEntity
  8
Layer_1
 62
7
100
AcDbPolyline
 90
6
 70
0
 10
122.303469
 20
87.177856
 30
0.0
 10
124.174072
 20
90.875560
 30
0.0
 10
119.944459
 20
95.105170
 30
0.0
 10
115.714845
 20
90.875560
 30
0.0
 10
119.944459
 20
86.645952
 30
0.0
 10
122.303469
 20
87.177856
 30
0.0
  0
LWPOLYLINE
  5
249
100
AcDbEntity
  8
Layer_1
 62
7
100
AcDbPolyline
 90
6
 70
0
 10
131.334581
 20
87.177856
 30
0.0
 10
133.205183
 20
90.875560
 30
0.0
 10
128.975570
 20
95.105170
 30
0.0
 10
124.745956
 20
90.875560
 30
0.0
 10
128.975570
 20
86.645952
 30
0.0
 10
131.334581
 20
87.177856
 30
0.0
  0
LWPOLYLINE
  5
24a
100
AcDbEntity
  8
Layer_1
 62
7
100
AcDbPolyline
 90
6
 70
0
 10
158.427914
 20
87.177856
 30
0.0
 10
160.298517
 20
90.875560
 30
0.0
 10
156.068903
 20
95.105170
 30
0.0
 10
151.839289
 20
90.875560
 30
0.0
 10
156.068903
 20
86.645952
 30
0.0
 10
158.427914
 20
87.177856
 30
0.0
  0
LWPOLYLINE
  5
24b
100
AcDbEntity
  8
Layer_1
 62
7
100
AcDbPolyline
 90
6
 70
0
 10
167.555754
 20
87.195354
 30
0.0
 10
169.332289
 20
90.932202
 30
0.0
 10
165.100014
 20
95.109003
 30
0.0
 10
160.867736
 20
90.932202
 30
0.0
 10
165.100014
 20
86.644456
 30
0.0
 10
167.555754
 20
87.195354
 30
0.0
  0
LWPOLYLINE
  5
24c
100
AcDbEntity
  8
Layer_1
 62
7
100
AcDbPolyline
 90
6
 70
0
 10
176.586865
 20
87.195354
 30
0.0
 10
178.363400
 20
90.932202
 30
0.0
 10
174.131122
 20
95.109003
 30
0.0
 10
169.898845
 20
90.932202
 30
0.0
 10
174.131122
 20
86.644456
 30
0.0
 10
176.586865
 20
87.195354
 30
0.0
  0
LWPOLYLINE
  5
24d
100
AcDbEntity
  8
Layer_1
 62
7
100
AcDbPolyline
 90
6
 70
0
 10
185.617976
 20
87.195354
 30
0.0
 10
187.394511
 20
90.932202
 30
0.0
 10
183.162234
 20
95.109003
 30
0.0
 10
178.929956
 20
90.932202
 30
0.0
 10
183.162234
 20
86.644456
 30
0.0
 10
185.617976
 20
87.195354
 30
0.0
  0
LWPOLYLINE
  5
24e
100
AcDbEntity
  8
Layer_1
 62
7
100
AcDbPolyline
 90
6
 70
0
 10
194.649087
 20
87.195354
 30
0.0
 10
196.425622
 20
90.932202
 30
0.0
 10
192.193345
 20
95.109003
 30
0.0
 10
187.961067
 20
90.932202
 30
0.0
 10
192.193345
 20
86.644456
 30
0.0
 10
194.649087
 20
87.195354
 30
0.0
  0
LWPOLYLINE
  5
24f
100
AcDbEntity
  8
Layer_1
 62
7
100
AcDbPolyline
 90
6
 70
0
 10
203.680198
 20
87.195354
 30
0.0
 10
205.456734
 20
90.932202
 30
0.0
 10
201.224456
 20
95.109003
 30
0.0
 10
196.992178
 20
90.932202
 30
0.0
 10
201.224456
 20
86.644456
 30
0.0
 10
203.680198
 20
87.195354
 30
0.0
  0
LWPOLYLINE
  5
250
100
AcDbEntity
  8
Layer_1
 62
7
100
AcDbPolyline
 90
6
 70
0
 10
212.711309
 20
87.195354
 30
0.0
 10
214.487845
 20
90.932202
 30
0.0
 10
210.255567
 20
95.109003
 30
0.0
 10
206.023289
 20
90.932202
 30
0.0
 10
210.255567
 20
86.644456
 30
0.0
 10
212.711309
 20
87.195354
 30
0.0
  0
LWPOLYLINE
  5
251
100
AcDbEntity
  8
Layer_1
 62
7
100
AcDbPolyline
 90
6
 70
0
 10
221.742421
 20
87.195354
 30
0.0
 10
223.518959
 20
90.932202
 30
0.0
 10
219.286678
 20
95.109003
 30
0.0
 10
215.054400
 20
90.932202
 30
0.0
 10
219.286678
 20
86.644456
 30
0.0
 10
221.742421
 20
87.195354
 30
0.0
  0
LWPOLYLINE
  5
252
100
AcDbEntity
  8
Layer_1
 62
7
100
AcDbPolyline
 90
6
 70
0
 10
230.773534
 20
87.195354
 30
0.0
 10
232.550070
 20
90.932202
 30
0.0
 10
228.317792
 20
95.109003
 30
0.0
 10
224.085514
 20
90.932202
 30
0.0
 10
228.317792
 20
86.644456
 30
0.0
 10
230.773534
 20
87.195354
 30
0.0
  0
LWPOLYLINE
  5
253
100
AcDbEntity
  8
Layer_1
 62
7
100
AcDbPolyline
 90
6
 70
0
 10
257.866868
 20
87.195354
 30
0.0
 10
259.643403
 20
90.932202
 30
0.0
 10
255.411125
 20
95.109003
 30
0.0
 10
251.178847
 20
90.932202
 30
0.0
 10
255.411125
 20
86.644456
 30
0.0
 10
257.866868
 20
87.195354
 30
0.0
  0
LWPOLYLINE
  5
254
100
AcDbEntity
  8
Layer_1
 62
7
100
AcDbPolyline
 90
6
 70
0
 10
266.897979
 20
87.195354
 30
0.0
 10
268.674514
 20
90.932202
 30
0.0
 10
264.442236
 20
95.109003
 30
0.0
 10
260.209959
 20
90.932202
 30
0.0
 10
264.442236
 20
86.644456
 30
0.0
 10
266.897979
 20
87.195354
 30
0.0
  0
LWPOLYLINE
  5
255
100
AcDbEntity
  8
Layer_1
 62
7
100
AcDbPolyline
 90
6
 70
0
 10
275.929089
 20
87.195354
 30
0.0
 10
277.705624
 20
90.932202
 30
0.0
 10
273.473347
 20
95.109003
 30
0.0
 10
269.241070
 20
90.932202
 30
0.0
 10
273.473347
 20
86.644456
 30
0.0
 10
275.929089
 20
87.195354
 30
0.0
  0
LWPOLYLINE
  5
256
100
AcDbEntity
  8
Layer_1
 62
7
100
AcDbPolyline
 90
6
 70
0
 10
284.960214
 20
87.195354
 30
0.0
 10
286.736747
 20
90.932202
 30
0.0
 10
282.504458
 20
95.109003
 30
0.0
 10
278.272180
 20
90.932202
 30
0.0
 10
282.504458
 20
86.644456
 30
0.0
 10
284.960214
 20
87.195354
 30
0.0
  0
LWPOLYLINE
  5
257
100
AcDbEntity
  8
Layer_1
 62
7
100
AcDbPolyline
 90
6
 70
0
 10
293.991325
 20
87.195354
 30
0.0
 10
295.767858
 20
90.932202
 30
0.0
 10
291.535569
 20
95.109003
 30
0.0
 10
287.303280
 20
90.932202
 30
0.0
 10
291.535569
 20
86.644456
 30
0.0
 10
293.991325
 20
87.195354
 30
0.0
  0
LWPOLYLINE
  5
258
100
AcDbEntity
  8
Layer_1
 62
7
100
AcDbPolyline
 90
6
 70
0
 10
303.022437
 20
87.195354
 30
0.0
 10
304.798969
 20
90.932202
 30
0.0
 10
300.566680
 20
95.109003
 30
0.0
 10
296.334391
 20
90.932202
 30
0.0
 10
300.566680
 20
86.644456
 30
0.0
 10
303.022437
 20
87.195354
 30
0.0
  0
LWPOLYLINE
  5
259
100
AcDbEntity
  8
Layer_1
 62
7
100
AcDbPolyline
 90
6
 70
0
 10
312.053548
 20
87.195354
 30
0.0
 10
313.830080
 20
90.932202
 30
0.0
 10
309.597791
 20
95.109003
 30
0.0
 10
305.365502
 20
90.932202
 30
0.0
 10
309.597791
 20
86.644456
 30
0.0
 10
312.053548
 20
87.195354
 30
0.0
  0
LWPOLYLINE
  5
25a
100
AcDbEntity
  8
Layer_1
 62
7
100
AcDbPolyline
 90
6
 70
0
 10
321.084659
 20
87.195354
 30
0.0
 10
322.861191
 20
90.932202
 30
0.0
 10
318.628902
 20
95.109003
 30
0.0
 10
314.396613
 20
90.932202
 30
0.0
 10
318.628902
 20
86.644456
 30
0.0
 10
321.084659
 20
87.195354
 30
0.0
  0
LWPOLYLINE
  5
25b
100
AcDbEntity
  8
Layer_1
 62
7
100
AcDbPolyline
 90
6
 70
0
 10
348.177993
 20
87.195354
 30
0.0
 10
349.954525
 20
90.932202
 30
0.0
 10
345.722236
 20
95.109003
 30
0.0
 10
341.489947
 20
90.932202
 30
0.0
 10
345.722236
 20
86.644456
 30
0.0
 10
348.177993
 20
87.195354
 30
0.0
  0
LWPOLYLINE
  5
25c
100
AcDbEntity
  8
Layer_1
 62
7
100
AcDbPolyline
 90
6
 70
0
 10
357.209104
 20
87.195354
 30
0.0
 10
358.985637
 20
90.932202
 30
0.0
 10
354.753347
 20
95.109003
 30
0.0
 10
350.521058
 20
90.932202
 30
0.0
 10
354.753347
 20
86.644456
 30
0.0
 10
357.209104
 20
87.195354
 30
0.0
  0
LWPOLYLINE
  5
25d
100
AcDbEntity
  8
Layer_1
 62
7
100
AcDbPolyline
 90
6
 70
0
 10
366.240215
 20
87.195354
 30
0.0
 10
368.016748
 20
90.932202
 30
0.0
 10
363.784459
 20
95.109003
 30
0.0
 10
359.552169
 20
90.932202
 30
0.0
 10
363.784459
 20
86.644456
 30
0.0
 10
366.240215
 20
87.195354
 30
0.0
  0
LWPOLYLINE
  5
25e
100
AcDbEntity
  8
Layer_1
 62
7
100
AcDbPolyline
 90
6
 70
0
 10
375.271326
 20
87.195354
 30
0.0
 10
377.047859
 20
90.932202
 30
0.0
 10
372.815570
 20
95.109003
 30
0.0
 10
368.583281
 20
90.932202
 30
0.0
 10
372.815570
 20
86.644456
 30
0.0
 10
375.271326
 20
87.195354
 30
0.0
  0
LWPOLYLINE
  5
25f
100
AcDbEntity
  8
Layer_1
 62
7
100
AcDbPolyline
 90
6
 70
0
 10
384.302437
 20
87.195354
 30
0.0
 10
386.078970
 20
90.932202
 30
0.0
 10
381.846681
 20
95.109003
 30
0.0
 10
377.614392
 20
90.932202
 30
0.0
 10
381.846681
 20
86.644456
 30
0.0
 10
384.302437
 20
87.195354
 30
0.0
  0
LWPOLYLINE
  5
260
100
AcDbEntity
  8
Layer_1
 62
7
100
AcDbPolyline
 90
6
 70
0
 10
393.333549
 20
87.195354
 30
0.0
 10
395.110081
 20
90.932202
 30
0.0
 10
390.877792
 20
95.109003
 30
0.0
 10
386.645503
 20
90.932202
 30
0.0
 10
390.877792
 20
86.644456
 30
0.0
 10
393.333549
 20
87.195354
 30
0.0
  0
LWPOLYLINE
  5
261
100
AcDbEntity
  8
Layer_1
 62
7
100
AcDbPolyline
 90
6
 70
0
 10
402.364660
 20
87.195354
 30
0.0
 10
404.141192
 20
90.932202
 30
0.0
 10
399.908903
 20
95.109003
 30
0.0
 10
395.676614
 20
90.932202
 30
0.0
 10
399.908903
 20
86.644456
 30
0.0
 10
402.364660
 20
87.195354
 30
0.0
  0
LWPOLYLINE
  5
262
100
AcDbEntity
  8
Layer_1
 62
7
100
AcDbPolyline
 90
6
 70
0
 10
411.395771
 20
87.195354
 30
0.0
 10
413.172303
 20
90.932202
 30
0.0
 10
408.940014
 20
95.109003
 30
0.0
 10
404.707725
 20
90.932202
 30
0.0
 10
408.940014
 20
86.644456
 30
0.0
 10
411.395771
 20
87.195354
 30
0.0
  0
LWPOLYLINE
  5
263
100
AcDbEntity
  8
Layer_1
 62
7
100
AcDbPolyline
 90
6
 70
0
 10
420.426882
 20
87.195354
 30
0.0
 10
422.203414
 20
90.932202
 30
0.0
 10
417.971125
 20
95.109003
 30
0.0
 10
413.738836
 20
90.932202
 30
0.0
 10
417.971125
 20
86.644456
 30
0.0
 10
420.426882
 20
87.195354
 30
0.0
  0
LWPOLYLINE
  5
264
100
AcDbEntity
  8
Layer_1
 62
7
100
AcDbPolyline
 90
6
 70
0
 10
447.520215
 20
87.195354
 30
0.0
 10
449.296748
 20
90.932202
 30
0.0
 10
445.064459
 20
95.109003
 30
0.0
 10
440.832169
 20
90.932202
 30
0.0
 10
445.064459
 20
86.644456
 30
0.0
 10
447.520215
 20
87.195354
 30
0.0
  0
LWPOLYLINE
  5
265
100
AcDbEntity
  8
Layer_1
 62
7
100
AcDbPolyline
 90
6
 70
0
 10
456.551326
 20
87.195354
 30
0.0
 10
458.327859
 20
90.932202
 30
0.0
 10
454.095570
 20
95.109003
 30
0.0
 10
449.863281
 20
90.932202
 30
0.0
 10
454.095570
 20
86.644456
 30
0.0
 10
456.551326
 20
87.195354
 30
0.0
  0
LWPOLYLINE
  5
266
100
AcDbEntity
  8
Layer_1
 62
7
100
AcDbPolyline
 90
6
 70
0
 10
483.644662
 20
87.195354
 30
0.0
 10
485.421195
 20
90.932202
 30
0.0
 10
481.188906
 20
95.109003
 30
0.0
 10
476.956617
 20
90.932202
 30
0.0
 10
481.188906
 20
86.644456
 30
0.0
 10
483.644662
 20
87.195354
 30
0.0
  0
LWPOLYLINE
  5
267
100
AcDbEntity
  8
Layer_1
 62
7
100
AcDbPolyline
 90
6
 70
0
 10
492.675774
 20
87.195354
 30
0.0
 10
494.452306
 20
90.932202
 30
0.0
 10
490.220017
 20
95.109003
 30
0.0
 10
485.987728
 20
90.932202
 30
0.0
 10
490.220017
 20
86.644456
 30
0.0
 10
492.675774
 20
87.195354
 30
0.0
  0
LWPOLYLINE
  5
268
100
AcDbEntity
  8
Layer_1
 62
7
100
AcDbPolyline
 90
6
 70
0
 10
501.706885
 20
87.195354
 30
0.0
 10
503.483417
 20
90.932202
 30
0.0
 10
499.251128
 20
95.109003
 30
0.0
 10
495.018839
 20
90.932202
 30
0.0
 10
499.251128
 20
86.644456
 30
0.0
 10
501.706885
 20
87.195354
 30
0.0
  0
LWPOLYLINE
  5
269
100
AcDbEntity
  8
Layer_1
 62
7
100
AcDbPolyline
 90
6
 70
0
 10
510.737996
 20
87.195354
 30
0.0
 10
512.514528
 20
90.932202
 30
0.0
 10
508.282239
 20
95.109003
 30
0.0
 10
504.049950
 20
90.932202
 30
0.0
 10
508.282239
 20
86.644456
 30
0.0
 10
510.737996
 20
87.195354
 30
0.0
  0
LWPOLYLINE
  5
26a
100
AcDbEntity
  8
Layer_1
 62
7
100
AcDbPolyline
 90
6
 70
0
 10
519.769107
 20
87.195354
 30
0.0
 10
521.545639
 20
90.932202
 30
0.0
 10
517.313350
 20
95.109003
 30
0.0
 10
513.081061
 20
90.932202
 30
0.0
 10
517.313350
 20
86.644456
 30
0.0
 10
519.769107
 20
87.195354
 30
0.0
  0
LWPOLYLINE
  5
26b
100
AcDbEntity
  8
Layer_1
 62
7
100
AcDbPolyline
 90
6
 70
0
 10
528.800218
 20
87.195354
 30
0.0
 10
530.576750
 20
90.932202
 30
0.0
 10
526.344461
 20
95.109003
 30
0.0
 10
522.112172
 20
90.932202
 30
0.0
 10
526.344461
 20
86.644456
 30
0.0
 10
528.800218
 20
87.195354
 30
0.0
  0
LWPOLYLINE
  5
26c
100
AcDbEntity
  8
Layer_1
 62
7
100
AcDbPolyline
 90
6
 70
0
 10
537.831329
 20
87.195354
 30
0.0
 10
539.607862
 20
90.932202
 30
0.0
 10
535.375572
 20
95.109003
 30
0.0
 10
531.143283
 20
90.932202
 30
0.0
 10
535.375572
 20
86.644456
 30
0.0
 10
537.831329
 20
87.195354
 30
0.0
  0
LWPOLYLINE
  5
26d
100
AcDbEntity
  8
Layer_1
 62
7
100
AcDbPolyline
 90
6
 70
0
 10
546.862440
 20
87.195354
 30
0.0
 10
548.638973
 20
90.932202
 30
0.0
 10
544.406684
 20
95.109003
 30
0.0
 10
540.174394
 20
90.932202
 30
0.0
 10
544.406684
 20
86.644456
 30
0.0
 10
546.862440
 20
87.195354
 30
0.0
  0
LWPOLYLINE
  5
26e
100
AcDbEntity
  8
Layer_1
 62
7
100
AcDbPolyline
 90
6
 70
0
 10
573.955774
 20
87.195354
 30
0.0
 10
575.732306
 20
90.932202
 30
0.0
 10
571.500017
 20
95.109003
 30
0.0
 10
567.267728
 20
90.932202
 30
0.0
 10
571.500017
 20
86.644456
 30
0.0
 10
573.955774
 20
87.195354
 30
0.0
  0
LWPOLYLINE
  5
26f
100
AcDbEntity
  8
Layer_1
 62
7
100
AcDbPolyline
 90
6
 70
0
 10
582.986885
 20
87.195354
 30
0.0
 10
584.763428
 20
90.932202
 30
0.0
 10
580.531128
 20
95.109003
 30
0.0
 10
576.298839
 20
90.932202
 30
0.0
 10
580.531128
 20
86.644456
 30
0.0
 10
582.986885
 20
87.195354
 30
0.0
  0
LWPOLYLINE
  5
270
100
AcDbEntity
  8
Layer_1
 62
7
100
AcDbPolyline
 90
6
 70
0
 10
592.018007
 20
87.195354
 30
0.0
 10
593.794540
 20
90.932202
 30
0.0
 10
589.562250
 20
95.109003
 30
0.0
 10
585.329961
 20
90.932202
 30
0.0
 10
589.562250
 20
86.644456
 30
0.0
 10
592.018007
 20
87.195354
 30
0.0
  0
LWPOLYLINE
  5
271
100
AcDbEntity
  8
Layer_1
 62
7
100
AcDbPolyline
 90
6
 70
0
 10
600.952372
 20
87.177856
 30
0.0
 10
602.822970
 20
90.875560
 30
0.0
 10
598.593362
 20
95.105170
 30
0.0
 10
594.363754
 20
90.875560
 30
0.0
 10
598.593362
 20
86.645952
 30
0.0
 10
600.952372
 20
87.177856
 30
0.0
  0
LWPOLYLINE
  5
272
100
AcDbEntity
  8
Layer_1
 62
7
100
AcDbPolyline
 90
6
 70
0
 10
609.983484
 20
87.177856
 30
0.0
 10
611.854081
 20
90.875560
 30
0.0
 10
607.624473
 20
95.105170
 30
0.0
 10
603.394865
 20
90.875560
 30
0.0
 10
607.624473
 20
86.645952
 30
0.0
 10
609.983484
 20
87.177856
 30
0.0
  0
LWPOLYLINE
  5
273
100
AcDbEntity
  8
Layer_1
 62
7
100
AcDbPolyline
 90
6
 70
0
 10
619.014595
 20
87.177856
 30
0.0
 10
620.885192
 20
90.875560
 30
0.0
 10
616.655584
 20
95.105170
 30
0.0
 10
612.425976
 20
90.875560
 30
0.0
 10
616.655584
 20
86.645952
 30
0.0
 10
619.014595
 20
87.177856
 30
0.0
  0
LWPOLYLINE
  5
274
100
AcDbEntity
  8
Layer_1
 62
7
100
AcDbPolyline
 90
6
 70
0
 10
628.045706
 20
87.177856
 30
0.0
 10
629.916303
 20
90.875560
 30
0.0
 10
625.686695
 20
95.105170
 30
0.0
 10
621.457087
 20
90.875560
 30
0.0
 10
625.686695
 20
86.645952
 30
0.0
 10
628.045706
 20
87.177856
 30
0.0
  0
LWPOLYLINE
  5
275
100
AcDbEntity
  8
Layer_1
 62
7
100
AcDbPolyline
 90
6
 70
0
 10
637.076817
 20
87.177856
 30
0.0
 10
638.947414
 20
90.875560
 30
0.0
 10
634.717806
 20
95.105170
 30
0.0
 10
630.488198
 20
90.875560
 30
0.0
 10
634.717806
 20
86.645952
 30
0.0
 10
637.076817
 20
87.177856
 30
0.0
  0
LWPOLYLINE
  5
276
100
AcDbEntity
  8
Layer_1
 62
7
100
AcDbPolyline
 90
6
 70
0
 10
646.107928
 20
87.177856
 30
0.0
 10
647.978525
 20
90.875560
 30
0.0
 10
643.748917
 20
95.105170
 30
0.0
 10
639.519309
 20
90.875560
 30
0.0
 10
643.748917
 20
86.645952
 30
0.0
 10
646.107928
 20
87.177856
 30
0.0
  0
LWPOLYLINE
  5
277
100
AcDbEntity
  8
Layer_1
 62
7
100
AcDbPolyline
 90
6
 70
0
 10
673.201261
 20
87.177856
 30
0.0
 10
675.071858
 20
90.875560
 30
0.0
 10
670.842250
 20
95.105170
 30
0.0
 10
666.612642
 20
90.875560
 30
0.0
 10
670.842250
 20
86.645952
 30
0.0
 10
673.201261
 20
87.177856
 30
0.0
  0
LWPOLYLINE
  5
278
100
AcDbEntity
  8
Layer_1
 62
7
100
AcDbPolyline
 90
6
 70
0
 10
682.232372
 20
87.177856
 30
0.0
 10
684.102970
 20
90.875560
 30
0.0
 10
679.873362
 20
95.105170
 30
0.0
 10
675.643754
 20
90.875560
 30
0.0
 10
679.873362
 20
86.645952
 30
0.0
 10
682.232372
 20
87.177856
 30
0.0
  0
LWPOLYLINE
  5
279
100
AcDbEntity
  8
Layer_1
 62
7
100
AcDbPolyline
 90
6
 70
0
 10
691.263484
 20
87.177856
 30
0.0
 10
693.134081
 20
90.875560
 30
0.0
 10
688.904473
 20
95.105170
 30
0.0
 10
684.674865
 20
90.875560
 30
0.0
 10
688.904473
 20
86.645952
 30
0.0
 10
691.263484
 20
87.177856
 30
0.0
  0
LWPOLYLINE
  5
27a
100
AcDbEntity
  8
Layer_1
 62
7
100
AcDbPolyline
 90
6
 70
0
 10
700.294595
 20
87.177856
 30
0.0
 10
702.165192
 20
90.875560
 30
0.0
 10
697.935584
 20
95.105170
 30
0.0
 10
693.705976
 20
90.875560
 30
0.0
 10
697.935584
 20
86.645952
 30
0.0
 10
700.294595
 20
87.177856
 30
0.0
  0
LWPOLYLINE
  5
27b
100
AcDbEntity
  8
Layer_1
 62
7
100
AcDbPolyline
 90
6
 70
0
 10
709.325706
 20
87.177856
 30
0.0
 10
711.196303
 20
90.875560
 30
0.0
 10
706.966695
 20
95.105170
 30
0.0
 10
702.737087
 20
90.875560
 30
0.0
 10
706.966695
 20
86.645952
 30
0.0
 10
709.325706
 20
87.177856
 30
0.0
  0
LWPOLYLINE
  5
27c
100
AcDbEntity
  8
Layer_1
 62
7
100
AcDbPolyline
 90
6
 70
0
 10
718.356817
 20
87.177856
 30
0.0
 10
720.227414
 20
90.875560
 30
0.0
 10
715.997806
 20
95.105170
 30
0.0
 10
711.768198
 20
90.875560
 30
0.0
 10
715.997806
 20
86.645952
 30
0.0
 10
718.356817
 20
87.177856
 30
0.0
  0
LWPOLYLINE
  5
27d
100
AcDbEntity
  8
Layer_1
 62
7
100
AcDbPolyline
 90
6
 70
0
 10
727.387928
 20
87.177856
 30
0.0
 10
729.258525
 20
90.875560
 30
0.0
 10
725.028917
 20
95.105170
 30
0.0
 10
720.799309
 20
90.875560
 30
0.0
 10
725.028917
 20
86.645952
 30
0.0
 10
727.387928
 20
87.177856
 30
0.0
  0
LWPOLYLINE
  5
27e
100
AcDbEntity
  8
Layer_1
 62
7
100
AcDbPolyline
 90
6
 70
0
 10
736.419039
 20
87.177856
 30
0.0
 10
738.289636
 20
90.875560
 30
0.0
 10
734.060028
 20
95.105170
 30
0.0
 10
729.830420
 20
90.875560
 30
0.0
 10
734.060028
 20
86.645952
 30
0.0
 10
736.419039
 20
87.177856
 30
0.0
  0
LWPOLYLINE
  5
27f
100
AcDbEntity
  8
Layer_1
 62
7
100
AcDbPolyline
 90
6
 70
0
 10
745.450150
 20
87.177856
 30
0.0
 10
747.320747
 20
90.875560
 30
0.0
 10
743.091139
 20
95.105170
 30
0.0
 10
738.861531
 20
90.875560
 30
0.0
 10
743.091139
 20
86.645952
 30
0.0
 10
745.450150
 20
87.177856
 30
0.0
  0
LWPOLYLINE
  5
280
100
AcDbEntity
  8
Layer_1
 62
7
100
AcDbPolyline
 90
6
 70
0
 10
754.481261
 20
87.177856
 30
0.0
 10
756.351858
 20
90.875560
 30
0.0
 10
752.122250
 20
95.105170
 30
0.0
 10
747.892642
 20
90.875560
 30
0.0
 10
752.122250
 20
86.645952
 30
0.0
 10
754.481261
 20
87.177856
 30
0.0
  0
ENDSEC
  0
SECTION
  2
OBJECTS
  0
DICTIONARY
  5
C
330
0
100
AcDbDictionary
  3
ACAD_GROUP
350
D
  3
ACAD_MLINESTYLE
350
17
  0
DICTIONARY
  5
D
330
C
100
AcDbDictionary
  0
DICTIONARY
  5
1A
330
C
100
AcDbDictionary
  0
DICTIONARY
  5
17
330
C
100
AcDbDictionary
  3
STANDARD
350
18
  0
DICTIONARY
  5
19
330
C
100
AcDbDictionary
  0
ENDSEC
  0
EOF
